<?xml version="1.0" encoding="utf-8"?>
<!-- Generator: Adobe Illustrator 22.0.1, SVG Export Plug-In . SVG Version: 6.00 Build 0)  -->
<svg version="1.1" id="Layer_1" xmlns="http://www.w3.org/2000/svg" xmlns:xlink="http://www.w3.org/1999/xlink" x="0px" y="0px"
	 viewBox="0 0 176.1 154" style="enable-background:new 0 0 176.1 154;" xml:space="preserve">
<style type="text/css">
	.st0{fill:#FBC7B4;}
	.st1{fill-rule:evenodd;clip-rule:evenodd;fill:#FFFFFF;}
	.st2{fill-rule:evenodd;clip-rule:evenodd;}
	.st3{fill-rule:evenodd;clip-rule:evenodd;fill:#4F66AF;}
	.st4{fill-rule:evenodd;clip-rule:evenodd;fill:#8C6018;}
	.st5{fill-rule:evenodd;clip-rule:evenodd;fill:#F0ECEC;}
	.st6{fill-rule:evenodd;clip-rule:evenodd;fill:#636466;}
	.st7{fill-rule:evenodd;clip-rule:evenodd;fill:none;}
	.st8{fill-rule:evenodd;clip-rule:evenodd;fill:#4F350E;}
	.st9{fill-rule:evenodd;clip-rule:evenodd;fill:#FFCF29;}
	.st10{fill-rule:evenodd;clip-rule:evenodd;fill:#3F2A0B;}
	.st11{fill-rule:evenodd;clip-rule:evenodd;fill:#FFF8CC;}
	.st12{fill-rule:evenodd;clip-rule:evenodd;fill:#FFD69F;}
	.st13{fill-rule:evenodd;clip-rule:evenodd;fill:#134706;}
	.st14{clip-path:url(#SVGID_2_);}
	.st15{fill-rule:evenodd;clip-rule:evenodd;fill:#F4E2B3;}
	.st16{fill-rule:evenodd;clip-rule:evenodd;fill:#1F5500;}
	.st17{clip-path:url(#SVGID_4_);}
	.st18{fill-rule:evenodd;clip-rule:evenodd;fill:#FFCF29;stroke:#231F20;stroke-miterlimit:10;}
	.st19{clip-path:url(#SVGID_6_);}
	.st20{fill:#FFFFFF;}
	.st21{fill-rule:evenodd;clip-rule:evenodd;fill:#FFCF29;stroke:#231F20;stroke-width:0.3249;stroke-miterlimit:10;}
	.st22{clip-path:url(#SVGID_8_);}
	.st23{clip-path:url(#SVGID_10_);}
	.st24{clip-path:url(#SVGID_12_);}
	.st25{fill:#959E9D;}
	.st26{font-family:'Philosopher-Bold';}
	.st27{font-size:9.6248px;}
</style>
<g>
	<g>
		<path class="st1" d="M92,109.3c0.4-1-0.2-2-0.5-2.9c-1-3.3,1.8-11.5,3.7-11.7c0.7-1.9,2.6-2.6,4.1-3.7c1.7-1.1,3.4-2.3,5.1-3.2
			c0.1-0.9,1.2-1.1,1.8-0.5c1.8-1.1,4-0.9,5.9-1.6c1.5-2.4,1.6-4.9,2-7.1c0.2-1,0-2,0.7-2.8c2.3-3.2,11.3-4.6,14.6-2.7
			c1.8-1.1,1.8,0.9,2.1,2.2c0.3,0.6,0.5,1.3,0.4,2.1c0.8,1.8,1.6,4,3.3,5.3c2.3,1.7,5.7,2.3,7.9,3.1c0.5-0.5,0.6-1.2,0.6-1.2
			c3.4,0.7,6.7,2,9.6,4.1c3.3,1,5.5,3.6,7.2,6.4c0.2,0.3,0.2,0.6,0.2,0.9c5.1,7.5,7.5,16.4,7.9,25.4c3.3,2-1.6,19.6-2.7,23.3
			c0,0,0,0,0,0c-0.7,1.3-1.6,5-3.4,4.7c-1.3,1.4-3.2,1.1-4.9,1.2c0.3,1.1,0.1,2.3-0.2,3.3c-0.4,1.2-2.3,1.3-2.6-0.1
			c-16.9,3.3-34.3,0.7-51.4,1.2c-5,0-9.9,0.2-14.8,0.5c-0.7,0-1.4-0.7-1.4-1.4c1.1-11.3,2.1-26.2,3.2-37.4
			C91,114.3,91.2,111.7,92,109.3z"/>
		<path class="st9" d="M99.2,118.8C99.2,118.8,99.2,118.8,99.2,118.8C99.2,118.8,99.2,118.8,99.2,118.8z M97.7,114.2
			C97.7,114.2,97.7,114.2,97.7,114.2C97.7,114.2,97.7,114.2,97.7,114.2z M101.1,109.8L101.1,109.8L101.1,109.8L101.1,109.8
			L101.1,109.8C101.1,109.9,101.1,109.9,101.1,109.8C101.1,109.9,101.1,109.9,101.1,109.8c0,0.1,0.1,0.2,0.1,0.3
			c0.1,0.2,0.2,0.4,0.3,0.6c0.3,0.4,0.7,1,1.5,1c0.2,0,0.8,0.1,1.7,0.2c0.9,0.1,1.9,0.3,2.9,0.5c1,0.2,2,0.4,2.7,0.5
			c0.4,0.1,0.7,0.1,0.9,0.2l0.2,0l0,0l0.3,0.1c-0.4,0-0.7-0.1-1.1-0.1c-1.8-0.1-4-0.3-5.3-0.3l-0.3,0h0c-1.3,0-3.2,0-4.7,0.1
			c-0.8,0-1.6,0.1-2.2,0.2c-0.3,0.1-0.5,0.1-0.7,0.2c-0.2,0.1-0.5,0.3-0.5,0.6c0,0.2,0.1,0.4,0.2,0.6c0.1,0.1,0.3,0.3,0.5,0.4
			c0.4,0.2,0.9,0.5,1.4,0.7c1,0.4,2.2,0.7,2.8,0.8c0.6,0.1,2.2,0.4,3.8,0.7l-6.4,0.2l-0.1,0l-0.1,0.1l0.3,0.3
			c-0.3-0.3-0.3-0.3-0.3-0.3l0,0l0,0l0,0l0,0l0,0c0,0,0,0,0,0c0,0-0.1,0.1-0.1,0.2c-0.1,0.1-0.3,0.3-0.4,0.5
			c-0.1,0.2-0.2,0.5-0.1,0.8c0.1,0.3,0.4,0.5,0.8,0.6c0.6,0.1,1.9,0.4,3,0.7c0.6,0.1,1.1,0.2,1.5,0.3l0.4,0.1c0,0.1,0,0.1,0.1,0.2
			c0.1,0.2,0.3,0.6,0.5,0.9c0.4,0.7,1.1,1.5,2.1,1.8c0.7,0.2,1.5,0.4,2.2,0.5l0,0c0.2,0,0.5,0.1,0.7,0.1c0.4,0.1,0.8,0.2,1.1,0.3
			c0.3,0.1,0.5,0.2,0.6,0.3c0.1,0.2,0.3,0.4,0.5,0.7l0,0l0,0c0.2,0.3,0.4,0.7,0.7,1c0.3,0.3,0.5,0.7,0.9,0.9
			c0.3,0.3,0.7,0.5,1.1,0.6c0.6,0.1,2.6,0.6,4.4,1.1c0.9,0.2,1.8,0.5,2.4,0.7c0.3,0.1,0.6,0.2,0.8,0.2l0.2,0.1l0.1,0l0,0l0,0l0,0
			l0,0c0,0,0,0,0.1-0.4l-0.1,0.4l0.3,0.1l0.2-0.2l-0.3-0.2c0.3,0.2,0.3,0.2,0.3,0.2l0,0l0,0l0,0l0,0l0,0c0,0,0-0.1,0.1-0.1
			c0.1-0.1,0.2-0.2,0.3-0.4c0.2-0.3,0.5-0.8,0.8-1.4c0.6-1.1,1.3-2.7,1.4-4.1c0.1-1.4,0.2-2.7,0.3-3.7c0-0.5,0-0.9,0-1.2
			c0-0.1,0-0.3,0-0.3c0,0,0-0.1,0-0.1l0,0l0,0v0v0v0c0,0,0,0-0.4,0h0.4v-0.2l-0.2-0.1l-1.2-0.8l-4.9-5.3l0,0l-0.3,0.3
			c0.3-0.3,0.3-0.3,0.3-0.3l0,0l0,0l0,0l0,0c0,0,0,0,0,0c0,0,0,0-0.1-0.1c-0.1-0.1-0.1-0.1-0.3-0.2c-0.2-0.2-0.6-0.5-1.1-0.7
			c-1-0.6-2.5-1.3-4.6-1.8c-2.1-0.5-4.6-1.1-6.6-1.4c-1-0.2-2-0.3-2.7-0.3c-0.4,0-0.7,0-0.9,0c-0.2,0-0.5,0.1-0.7,0.2
			c-0.4,0.3-0.7,0.8-1,1.1c-0.1,0.2-0.2,0.3-0.2,0.4c0,0.1-0.1,0.1-0.1,0.1c0,0,0,0,0,0l0,0l0,0l0,0l0,0l0,0c0,0,0,0,0.4,0.2
			l-0.4-0.2l-0.1,0.1L101.1,109.8l0.4-0.1C101.1,109.8,101.1,109.8,101.1,109.8L101.1,109.8z M144.1,84.7c0.4,0.9,0.6,1.7,0.6,2.4
			c0,1.4-6.3,15.4-20.3,14.1c-9.3-0.9-15-5.1-17-12.7l-0.1-1.6c-0.3,0.1-0.6,0.3-0.9,0.4c-0.7-0.6-1.7-0.4-1.8,0.5
			c-1.2,0.6-2.3,1.4-3.4,2.1c-0.6,0.4-1.2,0.8-1.7,1.1l-0.1,0.1c-0.3,0.2-0.7,0.4-1,0.6c-1.2,0.8-2.5,1.6-3,3l-0.3,0
			c-1.9,0.1-4.5,8.4-3.5,11.6c0.1,0.2,0.1,0.4,0.2,0.6c0.3,0.8,0.5,1.5,0.3,2.3c-0.7,2.2-1,4.5-1.2,6.9c0,0.2-0.1,0.5-0.1,0.7
			c-0.7,6.5-1.3,14.2-1.9,21.8c-0.4,5.5-0.9,10.8-1.3,15.6c0,0.7,0.7,1.3,1.4,1.4c14.4,1.3,68.4,0.3,68.8-1c0.3-1,0.5-2.9,0.2-4
			c0.3,0,0.6,0,1,0c1.4,0,3-0.1,4-1.2c1.4,0.2,2.2-1.8,2.8-3.4c0.2-0.5,0.4-1,0.6-1.3l0,0c1.1-3.7,6-21.3,2.7-23.3
			c-0.3-9-2.8-18-7.9-25.4c0.1-0.3,0-0.6-0.2-0.8l0,0c-1.7-2.8-3.9-5.5-7.2-6.4c-2.9-2-6.2-3.3-9.6-4.1c0,0,0,0.1,0,0.1L144.1,84.7z
			"/>
		<path class="st1" d="M109,108.3l-5-11.3c0,0-0.8-1.9-2-1.9c-1.3,0-12.9,0.4-12.9,0.4s-2.4,0.3-1.6,1.6
			c0.8,1.3,12.1,24.5,12.1,24.5h4.8v-1.2l-5.4-1.5c0,0-1-1,0.5-1c1.5,0,10.4-0.3,10.4-0.3l-8.5-1.2l-4.2-1.6l0.6-0.8l3.6-0.5
			l11.6,0.5l-3.2-1.1l-7.1-1.5c0,0-1.4-1-1.4-1.9s3.7-1.3,3.7-1.3L109,108.3z"/>
		<path class="st2" d="M106.3,92.8c-0.3,0.1-0.7,0.3-1,0.6c-0.3,0.3-0.7,0.6-1.1,0.5c-0.2-0.1-0.4-0.3-0.4-0.5c0-1,1.5-1.2,2.3-1.2
			l0.1,0C106.6,92,106.7,92.6,106.3,92.8z M148.3,92.2L148.3,92.2c0.2,0.3,0.3,0.6,0.4,0.9c0.1,0.4,0,0.8-0.1,1.1l0,0.1
			c-0.1,0.8-1.2,0.9-1.7,0.4c-0.3-0.2-0.5-0.5-0.7-0.8c-0.1-0.3-0.1-0.7-0.2-1c-0.1-0.6,0-1.3,0.1-1.9c0.1-0.4,0.6-0.5,0.9-0.2
			C147.6,91.2,148.1,91.7,148.3,92.2z M101.6,98.3L101.6,98.3c0.3,0.3,0.6,0.8,0.7,1.1l0.1,0.2c0.4,0.7,0.7,1.5,0.2,2.3
			c-0.4,0.5-1,0.5-1.4,0c-0.7-1-1.2-2.1-1.4-3.3C99.7,97.3,101.4,97,101.6,98.3z M159.7,102.5c0.2,0,0.4,0.2,0.3,0.4
			c-0.4,0.6-0.8,1.1-1.5,1.5c-0.7,0.4-1.5,0.8-2.3,0.8c-1.2,0-1.8-1.8-0.6-2.3c0.6-0.3,1.3-0.4,1.9-0.4l0.3,0c0.3,0,0.6-0.1,0.9-0.1
			C159,102.4,159.3,102.5,159.7,102.5z M128.6,106.1c0.4,0,0.4,0.6,0.1,0.7c-1.1,0.4-2.2,0.8-3.4,1.2c-1.1,0.4-1.6-1.7-0.2-1.7
			C126.3,106.2,127.4,106.2,128.6,106.1L128.6,106.1z M144.8,108.8c1.3,0.6,0.1,2.6-1.1,1.9c-0.7-0.4-1.5-0.9-2.1-1.4l-0.1,0
			c-0.6-0.5-1.2-0.8-1.6-1.5c-0.1-0.2,0-0.4,0.3-0.4c0.8-0.1,1.5,0.2,2.3,0.5C143.2,108.1,144,108.5,144.8,108.8z M98.9,118.3
			c0.1-0.1,0.2-0.2,0.3-0.2c0.7-0.3,1.6-0.2,2.3-0.2c1,0,2-0.1,3-0.1c0.9,0,1.7,0,2.6,0c-1.2-0.2-2.3-0.3-3.5-0.5
			c-1.2-0.2-2.4-0.4-3.6-0.7c-1-0.3-2.1-0.7-2.9-1.4C97.7,116.2,98.3,117.2,98.9,118.3z M134.2,119.7c-0.3,0.4-1.1,1.3-1.7,0.7
			c-0.5-0.5,0.1-1.1,0.4-1.5l0,0c0.5-0.5,1-0.9,1.5-1.4c0.2-0.2,0.7,0,0.6,0.3C134.8,118.6,134.6,119.2,134.2,119.7z M162.6,122
			c-0.2,0.3-0.6,0.5-0.9,0.7l-0.1,0.1c-0.7,0.5-1.5,1-2.3,1.3c-0.4,0.1-0.9-0.1-1.1-0.5c-0.1-0.1-0.1-0.3-0.1-0.4l0-0.1
			c0-0.3,0.2-0.7,0.5-0.9c0.7-0.3,1.6-0.5,2.3-0.7c0.4-0.1,0.7-0.3,1.1-0.4c0.4-0.1,0.8-0.1,1.1-0.2c0.2,0,0.4,0.1,0.2,0.3
			C163,121.4,162.8,121.7,162.6,122z M147.4,124.6c-0.8,0.5-2,0.8-2.9,0.5c-1.5-0.5-1.2-2.6,0.4-2.7c1-0.1,2.2,0.7,2.7,1.6
			C147.6,124.2,147.6,124.5,147.4,124.6z M104.6,127.1c0.1,0.3,0,0.7-0.3,1c-0.2,0.2-0.4,0.3-0.7,0.3c-0.3,0-0.7-0.2-0.9-0.5
			c-0.3-0.5-0.4-0.9-0.5-1.4c0-0.2-0.1-0.5-0.1-0.7c0-0.2,0.1-0.4,0.1-0.6c0.1-0.3,0.4-0.4,0.6-0.2
			C103.7,125.4,104.3,126.3,104.6,127.1z M94,96.2c-1.9,0.1-3.7,0.3-5.6,0.5c0.5,0.9,0.9,1.8,1.4,2.7l0.3,0.7c1,2.1,1.9,4.2,2.9,6.3
			c1.2,2.7,2.5,5.4,3.8,8.1c0-0.1,0.1-0.3,0.2-0.4c1-0.7,2.3-0.7,3.5-0.8l0.5,0c1.4-0.1,2.8-0.1,4.2-0.1c3,0,6,0.4,8.9,1
			c0.1,0,0.1,0.1,0,0.1c-2.9-0.1-5.7-0.2-8.6-0.2c-1.4,0-2.8,0-4.2,0.1l-0.1,0c-1,0.1-2.2,0-3.2,0.4c0.6,0.5,1.5,0.7,2.2,0.9
			l0.3,0.1c1.2,0.3,2.4,0.5,3.7,0.6c2.4,0.3,4.8,0.5,7,1.4c0.5,0.2,0.2,1-0.3,1c-2.1-0.1-4.2,0-6.3,0c-1,0-2.1,0-3.1,0
			c-0.5,0-1,0-1.6,0c-0.2,0-1,0-1,0.3c0.1,0.1,0.1,0.2,0.2,0.3c0.3,0.2,0.8,0.2,1,0.3l0.3,0.1c0.4,0.1,0.8,0.2,1.2,0.2
			c1,0.2,2.1,0.4,3.2,0.5c2,0.3,4.1,0.4,6.1,0.5c0.5,0,0.5,0.8,0,0.8c-1.9,0-3.9-0.2-5.8-0.4c-1.8-0.2-3.6-0.5-5.4-1
			c0.2,0.3,0.3,0.5,0.5,0.7c0,0.1,0.1,0.1,0.1,0.2c0,0.1,0,0,0,0l0,0c0,0,0.3,0,0.5,0l1,0c0.8,0,1.7,0,2.5,0.2c0-0.1,0-0.1,0-0.2
			c0-0.1,0.1-0.2,0.2-0.1c0.1,0.1,0.1,0.2,0.2,0.4c0.1,0,0.1,0,0.2,0l0,0c0.1,0.1,0.2,0.3,0.2,0.4l0,0.1c0.8,0.9,2,1.3,3.2,1.6
			c1.4,0.3,3.5,0.3,4.4,1.6c0.4,0.6,0.6,1.3,1.2,1.7c0.5,0.4,1.1,0.6,1.8,0.8l0.1,0c0.8,0.2,1.7,0.4,2.5,0.7
			c0.4,0.1,0.9,0.2,1.3,0.3c0.6,0.1,1,0.1,1.6,0.1c0.3,0,0.5,0.1,0.7,0.3c0.1-0.1,0.2-0.3,0.3-0.4l0.2-0.3c0.3-0.3,0.5-0.7,0.7-1.1
			c0.4-1,0.7-2.1,0.8-3.2c0.2-1.2,0.2-2.3,0.3-3.5c0.1-0.5,0.1-0.9-0.1-1.3c-0.1-0.3-0.2-0.5-0.3-0.7c-0.6-0.6-1.3-1.2-1.9-1.8
			c-1-1-1.9-2-2.9-3c-0.9-0.9-1.8-1.6-3-2c-1.1-0.4-2.1-0.7-3.2-1l-0.6-0.2c-2.6-0.8-5.4-1.5-8.2-1.5c-0.6,0-1.9,0.2-2,1
			c-0.1,1.2,2,1.2,2.9,1.3l0.1,0c0.8,0.1,1.5,0.2,2.3,0.3c0.8,0.1,1.5,0.4,2.2,0.6l0.1,0c1.4,0.4,2.9,0.8,4.1,1.6
			c0.1,0.1,0,0.3-0.1,0.2c-1.6-0.3-3-0.9-4.6-1.1c-1.5-0.2-3.1-0.4-4.6-0.6c-1.2-0.1-2.6-0.3-3.3-1.5c-0.5-1,0-2.1,0.9-2.6
			c1-0.5,2.2-0.5,3.3-0.5l0.2,0c0.3,0,0.6,0,0.9,0.1c-0.1-0.1-0.1-0.2-0.2-0.4c-0.2-0.3-0.4-0.7-0.5-1c-0.3-0.5-0.9-1.3-0.9-1.9
			c0-0.2,0.2-0.3,0.4-0.2c0.6,0.3,0.8,1.2,1.1,1.8l0,0c0.2,0.5,0.6,1.2,0.5,1.7c0.6,0.1,1.2,0.2,1.7,0.3c-0.6-1.1-1.2-2.2-1.7-3.3
			c0,0,0-0.1-0.1-0.1c-0.3-0.5-0.5-1.1-0.8-1.6c-0.8-1.8-1.7-3.5-2.6-5.3c-0.4-0.7-0.8-1.9-1.7-2C101.2,95.8,95.7,96.1,94,96.2z
			 M94.4,131.8c-0.2,0.4-0.6,0.7-0.8,1.1l0,0c-0.5,0.6-1.5,1.3-2.2,0.7c-0.8-0.6,0.1-1.7,0.7-2.1l0.1-0.1c0.3-0.2,0.6-0.5,0.9-0.7
			c0.3-0.2,0.7-0.4,1.1-0.6c0.4-0.2,0.9,0.2,0.8,0.6C94.7,131,94.6,131.4,94.4,131.8z M115.6,133.5L115.6,133.5
			c-0.5,0.5-1.4,1.4-2.2,1.1c-0.3-0.1-0.6-0.4-0.5-0.7c0.1-0.5,0.2-0.7,0.6-1c0.3-0.2,0.7-0.5,1-0.7c0.6-0.4,1.3-0.8,2-0.9
			c0.1,0,0.2,0.1,0.2,0.2C116.6,132.3,116.1,132.9,115.6,133.5z M139.3,134.9c-0.5,0.3-1,0.1-1.3-0.3c-0.1-0.1-0.1-0.3-0.1-0.4
			l0-0.1c0-0.4,0.3-0.8,0.7-0.9c1-0.3,2-0.7,2.8-1.2c0.3-0.2,0.6,0.2,0.5,0.5C141.3,133.5,140.5,134.3,139.3,134.9z M102.9,140.4
			c0.7,0.3,1.6,0.6,2.1,1.2c0.7,0.7,0,1.9-1,1.7c-0.7-0.2-1.2-0.7-1.8-1.1l-0.1,0c-0.5-0.4-0.9-0.8-1.3-1.4c-0.1-0.1-0.1-0.3,0-0.5
			c0,0,0,0,0,0c0.3-0.4,1.4-0.1,1.8,0.1L102.9,140.4z M158.6,140.2L158.6,140.2c0.5,0.5,1.2,0.9,1.5,1.5c0.2,0.5,0.2,1-0.2,1.4
			c-0.3,0.3-1,0.5-1.4,0.2c-1.3-0.9-1.5-2.8-2-4.2c-0.2-0.4,0.4-0.6,0.7-0.3C157.5,139.3,158.1,139.7,158.6,140.2z M126.5,143.6
			c0.9,0.3,1.8,0.6,2.4,1.4c0.6,0.9-0.4,2.1-1.4,1.8c-0.8-0.3-1.4-1.1-1.9-1.8l-0.1-0.1c-0.4-0.5-0.8-1-1.3-1.4l-0.5-0.5
			c-0.3-0.3,0.1-0.8,0.5-0.6C125,142.8,125.7,143.3,126.5,143.6z M144.6,85.4c0.2,0.2,0.3,0.4,0.3,0.6c0.1,0,0.1,0,0.1,0.1
			c0.7,3.3-1.3,6.8-3.3,9.3c-0.6,0.8-1.3,1.5-2.1,2.2c0.1,0,0.3,0.1,0.4,0.1l0.1,0c0.1,0,0.3,0.1,0.4,0.1c0.4,0.2,0.7,0.4,0.8,0.9
			c0.2,0.7-0.3,1.4-1.1,1.4c-0.4,0-0.7-0.1-1-0.4c-0.1-0.1-0.2-0.2-0.3-0.4l-0.1-0.2c-0.1-0.1-0.1-0.2-0.2-0.4
			c0-0.1-0.1-0.2-0.1-0.3c-1.6,1.2-3.4,2.2-5.3,2.9c-3.7,1.3-7.7,1.6-11.5,0.9c-3.8-0.6-7.6-2.1-10.4-4.8c-2.7-2.6-4.5-6-4.8-9.7
			c-0.5,0.6-1.1,1.1-1.8,1.6c-1.1,0.7-2.2,1.2-3.3,1.7c-1.1,0.5-2.2,1.2-3.2,2c-0.5,0.4-1,0.8-1.4,1.3c-0.3,0.3-0.5,0.6-0.8,0.9
			c1-0.1,2.1-0.1,3.1-0.1c0.9,0,1.8-0.1,2.7-0.1c0.9,0.1,1.5,0.5,1.9,1.3c1,1.6,1.8,3.5,2.7,5.2l0.3,0.7c0.2,0.5,0.5,1.1,0.7,1.6
			c0.2-0.1,0.4-0.2,0.6-0.3l0.1-0.1c0.4-0.2,0.8-0.2,1.2-0.3l0.1,0c0.4,0,0.5,0.5,0.3,0.7c-0.2,0.3-0.4,0.6-0.7,0.8
			c-0.3,0.3-0.5,0.6-0.9,0.8c0.4,1,0.7,2,0.9,3c0.4,0.1,0.8,0.2,1.2,0.3c1.5,0.4,3.1,0.8,4.6,1.3c0.5,0.1,1,0.3,1.4,0.5
			c-0.1-0.1-0.2-0.3-0.2-0.5c0-0.7,0.5-1.3,0.7-2l0.1-0.2c0.2-0.6,0.5-1.1,0.7-1.6c0.1-0.3,0.6-0.2,0.6,0.1c0.1,0.7,0.2,1.4,0,2.1
			c-0.1,0.7-0.2,1.7-0.7,2.2c-0.1,0.1-0.2,0.2-0.4,0.2c0.6,0.2,1.1,0.5,1.6,0.9c1.1,0.8,2,2,2.9,3.1l0.5,0.6c0.7,0.9,1.3,1.8,2,2.7
			c0.4,0,0.8,0.2,1.2,0.4c0.1-0.1,0.3-0.2,0.5-0.2c0.7,0,1.1,0.3,1.7,0.6l0.6,0.3c0.4,0.2,0.8,0.4,1.2,0.7c1.2,0.6,2.3,1.2,3.5,1.9
			c2.3,1.2,4.7,2.4,7,3.6c3.3,1.6,6.8,3,10.4,4.2c-0.1-0.5-0.1-1.1-0.1-1.7c-0.1-1.4-0.1-2.8-0.1-4.3c0-1.4,0-2.8,0.1-4.2l0-0.2
			c0.1-1.3,0.1-2.7,0.7-3.8c0-0.1,0.2-0.1,0.2,0c0.4,1.2,0.6,2.5,0.7,3.8c0.1,0.5,0.1,1,0.2,1.4c0,0,0.1,0,0.1,0
			c0.3-0.1,0.6-0.1,1,0c0.4,0,0.5,0.6,0.1,0.7l-0.1,0c-0.4,0.1-0.7,0.4-1,0.5c0.1,0.5,0.1,1,0.1,1.6c0.1,1.3,0.2,2.7,0.3,4
			c0,0.6,0.1,1.3,0.1,1.9c0,0.3,0,0.6-0.1,0.8c0.6,0.2,1.3,0.4,1.9,0.5l0.1,0c1.7,0.5,3.4,1.1,4.9,2.1c0.5,0.3,0.4,0.8-0.1,0.6
			c-1.3-0.7-2.8-1.3-4.3-1.6c0,0-1.6-0.3-2.1-0.4c0,0.2-0.9,2-1.9,1.5c-1-0.5,0.4-1.8,0.4-1.8c-1.2-0.3-3-0.7-4.2-1.1
			c-2.1-0.6-4.1-1.5-6.1-2.4l-1.2-0.5c-2.4-1-4.7-2.2-7-3.4c-1.3-0.7-2.6-1.4-3.8-2.1c-0.6-0.4-1.3-0.7-1.9-1.1
			c-0.2-0.1-0.4-0.2-0.5-0.3c0.1,0.7,0.1,1.4,0.1,2.1l0,0.4c0,0.9-0.1,1.9-0.3,2.8c-0.3,1.5-0.9,3-1.9,4.3c-0.1,0.1-0.1,0.2-0.2,0.2
			c0.3,0.2,0.5,0.4,0.8,0.6c0.6,0.5,1.2,0.9,1.8,1.4c1.2,0.9,2.4,1.7,3.6,2.5c2.4,1.7,4.8,3.3,7.3,4.8c3.8,2.4,7.7,4.7,11.7,6.9
			c0-0.1,0.1-0.3,0.1-0.4l0,0c0.1-0.6,0.9-0.9,1.2-0.3c0.3,0.6,0.4,1.1,0.4,1.7c0.6,0.3,1.2,0.6,1.8,0.9l0.1,0.1
			c1.3,0.7,2.7,1.5,4.2,2c0.7,0.3,1.1,0.4,2.6,0.4s2.7-0.6,3-0.9c0.4-0.3,0.8-0.7,1.2-1.1c0.7-0.9,1.3-1.8,1.8-2.9
			c0.9-2.1,1.5-4.3,2.1-6.6l0.1-0.4c0.4-1.7,0.7-3.5,1-5.3c-0.3,0.1-0.6,0.1-0.9,0c-0.4-0.1-0.7-0.1-1.1-0.2c-1-0.2-0.6-1.9,0.4-1.5
			c0.3,0.1,0.7,0.2,1,0.3c0.3,0.1,0.5,0.2,0.7,0.3c0.3-2.9,0.4-5.7,0.3-8.6c-0.2-3.4-0.7-6.7-1.4-10c-0.1,0-0.2,0.1-0.3,0
			c-0.8-0.3-1.6-0.5-2.4-0.7c-0.3-0.1-0.6-0.4-0.6-0.8c0-0.1,0-0.3,0.1-0.4c0.2-0.3,0.6-0.5,0.9-0.4c0.8,0.3,1.4,0.6,2,1.1
			c-0.3-1.3-0.7-2.5-1.1-3.7c-1.6-4.8-3.8-9.6-6.8-13.7c-1.7-2.4-3.8-4.3-6.4-5.8c-1.3-0.7-2.6-1.4-3.9-2c-1.2-0.6-2.4-1.2-3.6-1.9
			c-0.3-0.1-0.6-0.1-1-0.2C144.8,85.3,144.7,85.3,144.6,85.4z M117.5,148.9c-0.4,0.7-1.1,1-1.8,1.4l0,0c-0.7,0.4-1.5,1.1-2.3,0.8
			c-0.5-0.1-0.7-0.7-0.5-1.2c0.4-0.8,1.5-0.9,2.2-1.2l0.1,0c0.7-0.3,1.4-0.5,2.2-0.4C117.5,148.4,117.6,148.7,117.5,148.9z
			 M148.2,152.1c-0.1,0.2-0.2,0.4-0.4,0.6l-0.1,0.1c-0.3,0.4-0.7,0.8-1.1,1c-0.6,0.3-1.3,0.1-1.6-0.5c-0.3-0.6,0.1-1.3,0.7-1.5
			c0.3-0.1,0.7-0.2,1-0.3c0.2-0.1,0.4-0.2,0.6-0.2c0.2,0,0.3,0,0.5,0c0.2,0,0.3,0.2,0.3,0.3C148.2,151.6,148.2,151.9,148.2,152.1z
			 M98.7,129.8l0,0.3c0,1.1,0.1,2.2,0,3.3c0,2.4-0.1,4.8-0.2,7.2c-0.1,2.4-0.3,4.8-0.5,7.2l0,0.3c-0.1,1.1-0.2,2.2-0.3,3.2
			c-0.1,1.2-0.2,2.3-0.6,3.4c-0.1,0.4-0.7,0.3-0.7-0.1c-0.1-0.8-0.1-1.5,0-2.3c-0.3,0.1-0.6,0.1-0.9,0.1l-0.3,0
			c-0.6,0-1.3,0.1-1.8-0.4c-0.3-0.3-0.2-0.8,0.1-1c0.5-0.4,1.2-0.2,1.7,0l0.1,0c0.4,0.1,0.8,0.2,1.1,0.4c0-0.1,0-0.2,0-0.3
			c0.1-1.2,0.2-2.4,0.3-3.6c0.1-0.9,0.1-1.8,0.2-2.7c-0.6,0.1-1.1,0.2-1.7,0.3c-0.5,0.1-1-0.2-1.1-0.7c-0.1-0.5,0.3-1,0.8-1
			c0.4,0,0.8,0,1.2,0.2c0.3,0.1,0.5,0.2,0.8,0.4c0.1-1.2,0.2-2.3,0.2-3.5c0.1-2.4,0.3-4.7,0.4-7.1c0.1-1.2,0.1-2.4,0.2-3.6l0-0.1
			c0.1-1.1,0.1-2.2,0.3-3.3c0-0.1,0.2-0.1,0.2,0C98.7,127.5,98.7,128.7,98.7,129.8z M102.9,154.1c0,1-1.3,1.3-1.8,0.5
			c-0.5-0.8-0.7-2.2-0.3-3.1c0.1-0.3,0.5-0.5,0.8-0.3C102.4,151.9,103,153.1,102.9,154.1z M133.1,78.6c0.5,1.2,1.3,2.3,2.3,3.1
			c1,0.9,2.3,1.3,3.5,1.7l0.3,0.1c1.5,0.5,2.9,1.2,4.4,1.6c0.1,0,0.1,0,0.2,0c0,0,0-0.1,0-0.1l0-0.1c0-0.2,0.2-0.4,0.3-0.4
			c0.1,0,0.2,0,0.2-0.1c0.1-0.1,0.2-0.1,0.3-0.1c1.6,0,3.1,0.8,4.4,1.6c0.2,0.1,0.4,0.1,0.6,0.2c1.2,0.5,2.5,1,3.6,1.6
			c2.4,1.2,4.6,2.8,6.4,4.9c1.7,2,3.1,4.3,4.3,6.6l0.2,0.3c1.2,2.3,2.3,4.8,3.2,7.2c3.6,9.9,4.6,21,2.4,31.3
			c-0.6,2.8-1.4,5.6-2.6,8.2c-0.5,1.2-1.2,2.4-2.1,3.5c-0.4,0.5-0.9,1-1.5,1.3c-0.5,0.3-3.2,1.3-5.8,0.8c0.2,0.7,0.2,1.5,0.2,2.2
			l0,0.4c0,0.9-1.4,0.9-1.4,0c0-0.9,0-2,0.2-2.9c-0.9-0.3-1.8-0.6-2.5-1c-2.7-1.4-5.4-2.9-8.1-4.3l-0.3-0.1
			c-1.1-0.6-2.2-1.2-3.2-1.8c0,0.1-0.1,0.2-0.2,0.2c-0.2,0.2-0.3,0.3-0.5,0.5c-0.4,0.4-0.8,0.8-1.4,0.7c-0.5-0.1-0.8-0.4-0.7-0.9
			c0.1-0.6,0.7-1,1.2-1.2l0.2-0.1l0.1,0c-1.1-0.7-2.2-1.3-3.2-2c-2.6-1.6-5.1-3.3-7.5-5.1c-1.4-1-2.8-2-4.1-3c-0.7-0.5-1.3-1-2-1.5
			c-0.5-0.4-1-0.7-1.4-1.1c-0.3,0.2-0.5,0.3-0.9,0.3c-0.6,0-1.4-0.3-1.5-0.9c-0.2-0.1-0.4-0.3-0.6-0.4c-0.2-0.1-0.4-0.1-0.6-0.2
			c-0.5-0.1-1-0.3-1.5-0.4l-0.2-0.1c-0.8-0.2-1.5-0.4-2.3-0.6c-0.7-0.2-1.5-0.5-2.1-1c-0.6-0.4-0.9-0.9-1.3-1.5l-0.1-0.2
			c-0.5-0.8-1.4-0.9-2.3-1.1l-0.3-0.1c-0.8-0.2-1.6-0.4-2.3-0.7c-0.9-0.4-1.8-1-2.4-1.9c-0.1,0-0.2,0.1-0.2,0.1
			c-0.5,0.1-1,0.2-1.6,0.2c-0.5,0-1,0-1.5,0c-0.5,0-1.1,0.1-1.6,0c-0.7-0.2-1.2-1.1-1.6-1.7l-0.2-0.3c-0.9-1.5-1.7-3-2.5-4.6
			l-0.3-0.6c-1.2-2.5-2.4-5-3.5-7.5c0,0.6,0.1,1.2,0.1,1.9c0,1.7,0,3.4-0.1,5c-0.1,3.4-0.4,6.7-0.8,10c-0.7,6.6-1.9,13.2-2.4,19.8
			c-0.2,1.9-0.3,3.8-0.4,5.7c-0.1,0.9-0.1,1.9-0.2,2.8c0,0.4,0,0.9-0.1,1.3c0,0.6-0.2,0.9-0.5,1.3c-0.3,0.3-0.8,0.2-1-0.1
			c-0.5-0.7-0.4-1.4-0.3-2.2l0-0.6c0-0.7,0.1-1.4,0.1-2.1c0.1-1.7,0.3-3.4,0.5-5c0.4-3.3,0.8-6.6,1.2-9.9c0.9-6.6,1.9-13.2,2.5-19.8
			c0.2-1.9,0.3-3.7,0.4-5.6c0.1-1.3,0-2.8,0-4c-0.7-1.7-3.6-8.2-4.3-9.8c-0.2-0.5,0-0.8,0.6-0.8c2.2-0.3,4.4-0.5,6.6-0.7
			c0.1,0,0.4-0.3,0.5-0.4c0.2-0.5,0.8-1,1.2-1.4l0.1-0.1c0.4-0.4,0.9-0.8,1.4-1.2c1-0.8,2.1-1.5,3.3-2c1.2-0.6,2.3-1,3.5-1.7
			c0.6-0.3,1.1-0.7,1.7-1l0.1-0.1c0.1-0.1,0.3-0.2,0.5-0.3c0-0.1,0-0.1,0-0.2c0-1.4,2.1-1.4,2.2-0.1c1.4-0.6,2.9-1.1,4-2.2
			c0.5-0.6,0.8-1.5,1-2.3l0-0.1c0.2-0.7,0.3-2.3,0.7-3c0-0.1,0.4,0,0.4,0c0,0.8-0.1,2.5-0.3,3.3c0,0-0.5,2.2-1,2.8
			c-0.5,0.7-1.3,1.2-2,1.6l-0.1,0c-0.7,0.4-1.6,0.9-2.4,1.1c-0.1,0-0.2,0-0.2,0c0.2,2.7,1.3,5.5,3.1,7.6c2.4,2.7,5.7,4.2,9.2,5
			c6.7,1.5,14.2-0.1,18.9-5.3c1.2-1.3,2.2-2.8,3-4.3c0.6-1.3,1.1-2.6,1.6-3.9c-0.7,0.4-1.5,0-2.2-0.3l-2.8-1l-0.2-0.1
			c-1.6-0.6-3.3-1.1-4.6-2.2c-2.5-2.1-3.3-6-3.3-9.2c0-0.1,0.2-0.2,0.3,0C132.2,75.6,132.5,77.2,133.1,78.6z"/>
		<path class="st1" d="M105.9,43.5c3.7-5.3,13.1-5.9,19-5.9c11.7-0.1,14.1,13.4,14.7,22.8c1.2,0.2,2.5,0.6,3.3,1.6
			c1,1.2,1.3,3.2,0.4,4.6c-0.6,0.9-1.6,1.2-2.6,1.2c-3.4-0.3-4.1,2.7-5.8,5c-4.3,5.8-11.8,7.7-18.6,7.8c-2.3,0.1-5.1,0.2-6.6-2
			c-4.7-8.2-4.8-19-5.1-28.3C104.5,48.1,104.5,45.6,105.9,43.5z"/>
		<path class="st2" d="M137.7,64.1c0.1-0.1,0.2-0.2,0.3-0.3c0.1-0.1,0.1-0.1,0.2-0.2c0.2-0.2,0.5-0.4,0.7-0.5
			c0.3-0.2,0.6-0.3,0.9-0.4c0.1,0,0.3-0.1,0.4-0.1c0,0,0,0,0.1,0c0,0,0,0,0,0c0,0,0,0,0,0c0.2,0,0.5,0,0.7,0c0,0,0.1,0.1,0.1,0.1
			c0.2,0,0.4,0,0.6,0.1c0,0,0.1,0.1,0.1,0.1l0.1,0c0,0,0,0,0.1,0.1c0,0,0,0.1,0,0.1c-0.1,0-0.1,0-0.2,0c0,0,0,0,0,0.1c0,0,0,0,0.1,0
			c0,0,0,0,0.1,0c0.1,0,0.1,0.2-0.1,0.2h0c0,0,0,0,0,0c0,0,0,0,0,0c0,0,0,0,0,0c0,0,0.2,0.2,0.1,0.2c-0.2,0-0.4,0-0.6,0c0,0,0,0,0,0
			c0.1,0,0.2,0,0.3,0.1c0.1,0,0.1,0.2,0,0.2c-0.1,0-0.1,0-0.2,0c0,0.1-0.1,0.1-0.1,0.1c-0.3,0-0.7,0-1,0c-0.1,0-0.2,0-0.2,0l0,0
			c0,0,0,0,0,0c0,0,0,0-0.1,0c-0.2,0-0.4,0.1-0.5,0.2c-0.1,0.1-0.2,0.1-0.3,0.2c-0.2,0.1-0.3,0.3-0.4,0.4c-0.2,0.2-0.4,0.4-0.4,0.7
			c0,0.1-0.1,0-0.1,0c0,0-0.1,0.1-0.2,0.1c0,0,0,0,0,0c0,0,0,0,0,0c0,0.1-0.2,0.3-0.3,0.3c-0.1,0-0.1,0-0.1-0.1c0,0,0,0,0,0
			c0,0,0,0,0,0c-0.1,0.1-0.1,0.1-0.2,0.1c-0.1,0-0.1,0-0.1-0.1c0,0,0-0.1,0-0.1c0,0,0,0,0,0c0,0-0.1,0.1-0.1,0.1
			c-0.1,0-0.1,0-0.1-0.1c0-0.1,0.1-0.2,0.1-0.3c0,0,0,0,0,0c-0.1,0-0.1,0-0.1-0.1c0,0,0,0,0,0c0,0,0,0,0,0c-0.1,0-0.1,0.1-0.1,0.1
			c-0.1,0-0.1,0-0.1-0.1c0.1-0.3,0.2-0.5,0.4-0.7C137.5,64.3,137.6,64.2,137.7,64.1z M98.5,45.4c0.1-0.2,0.2-0.4,0.4-0.6
			c0.2-0.3,0.4-0.6,0.7-0.7c0.1-0.1,0.1-0.1,0.2-0.2c0.1-0.1,0.2-0.2,0.3-0.3c0.1-0.1,0.3-0.2,0.4-0.3c0.5-0.1,0.9-0.1,1.4-0.1
			c0.1,0,0.3,0,0.4,0.1c0.7-0.3,1.7,0,2.2,0.6c0,0.1,0.1,0.1,0.1,0.2c0.1-0.1,0.2-0.2,0.2-0.4c0.1,0,0.2-0.1,0.2-0.2
			c0.1-0.2,0.2-0.4,0.3-0.5c0.1-0.3,0.3-0.6,0.4-0.7l0,0c0,0,0,0,0,0c0,0,0,0,0,0l0,0c0,0,0,0,0-0.1c0-0.1,0.1-0.2,0-0.3
			c0,0,0,0,0,0c0,0,0,0,0,0c-0.1-0.2-0.4-0.2-0.5-0.1c-0.1,0.1-0.2,0.2-0.3,0.4c0,0,0,0,0,0c0,0,0-0.1,0.1-0.1c0,0,0-0.1,0.1-0.1
			c-0.4,0.3-0.9,0.4-1.5,0.4c-0.5,0-1.3,0-1.8-0.3c-0.1,0-0.2,0-0.2,0c-0.5-0.2-0.9-0.4-1.3-0.7c-0.2-0.1-0.4-0.3-0.5-0.4
			c-0.2-0.2-0.4-0.5-0.6-0.7c-0.2-0.2-0.4-0.5-0.6-0.7c-0.1-0.2-0.1-0.4-0.2-0.6c0,0,0-0.1,0-0.1c-0.1-0.3-0.2-0.5-0.2-0.8
			c-0.1-0.6,0-1.2,0.1-1.7c0-0.1,0.1-0.3,0.1-0.4c0-0.3,0.1-0.7,0.3-0.9c0-0.1,0.1-0.3,0.1-0.4c0,0,0,0,0-0.1c0,0,0,0,0,0
			c-0.1-0.3,0-0.7,0.2-1c0.1-0.2,0.3-0.3,0.5-0.4c0-0.2,0.1-0.3,0.2-0.5c0.2-0.3,0.5-0.5,0.9-0.5c0.1-0.5,0.6-1,1.1-1.1
			c0.2-0.6,0.7-1,1.3-1c0.1-0.3,0.3-0.7,0.6-0.8c0.4-0.2,0.9-0.2,1.2-0.1c0.6-0.6,1.6-0.7,2.2-0.1c0.1,0,0.2,0,0.2,0.1
			c0.4-0.1,0.9-0.1,1.2,0.2c0.3,0.2,0.4,0.5,0.5,0.8c0.1,0,0.3,0.1,0.4,0.2c0.1,0,0.1,0.1,0.1,0.1c0.5,0.2,1,0.6,1.2,1.1
			c0.6,0.2,0.9,1.1,0.7,1.8c-0.1,0.3-0.2,0.5-0.3,0.7c0.1,0.4,0.2,0.9,0.2,1.4c0,0.1,0,0.1,0,0.2c0.5-0.3,1-0.7,1.6-1c0,0,0,0,0.1,0
			c0,0,0,0,0.1,0c0.1,0,0.2,0.1,0.3,0c2-0.7,4-1.2,6-1.5c-0.5-0.1-1-0.2-1.5-0.4c-1-0.4-1.6-0.9-1.8-1.8c-0.4-0.3-0.5-1-0.3-1.4
			c-0.2-0.2-0.4-0.5-0.4-0.8c0-0.2,0-0.4,0.2-0.6c-0.3-0.5-0.2-1.1,0.2-1.5c-0.1-0.2-0.1-0.5-0.1-0.8c0.1-0.3,0.3-0.5,0.6-0.7
			c0-0.2,0-0.5,0.2-0.7c0.2-0.4,0.7-0.6,1.1-0.6l0,0c0,0,0.1-0.1,0.1-0.1c0.2-0.7,0.9-1.2,1.6-1.1c0.4-0.8,1.4-1.1,2.1-0.7
			c0.5-0.5,1.2-0.6,1.8-0.3c0.5-0.4,1.2-0.5,1.7-0.1c0.6-0.5,1.6-0.2,2,0.4c0.3-0.1,0.7-0.1,1,0.1c0.3,0.1,0.4,0.4,0.5,0.6
			c0.1,0,0.2,0.1,0.3,0.1c0.2,0.2,0.4,0.4,0.4,0.6c0.1,0,0.2,0.1,0.3,0.2c0.2,0.2,0.3,0.3,0.4,0.6c0.2,0.1,0.4,0.2,0.5,0.4
			c0.3,0.4,0.2,0.8,0,1.1c0.3,0.4,0.2,1-0.1,1.4c0.2,0.4,0.1,0.8-0.1,1.1c0.1,0.6,0,1.1-0.4,1.5c0.1,0.7-0.4,1.2-0.9,1.3
			c0,0-0.1,0.1-0.1,0.1c-0.1,0.2-0.2,0.4-0.3,0.5c-0.2,0.2-0.4,0.2-0.6,0.3c-0.8,0.5-1.7,0.9-2.6,1.1c0,0,0,0,0,0c0,0,0,0,0,0
			c1.8,0.1,3.7,0.3,5.5,0.6c0.7,0.3,1.4,0.5,2.1,0.6c1.1,0.3,2.2,0.5,3.2,1.4c0,0,0,0,0.1,0l0-0.3c-0.4-0.5-0.6-1.1-0.3-1.6
			c0-0.2-0.1-0.4,0-0.6c-0.1-0.2-0.2-0.5-0.2-0.7c-0.1-0.4-0.2-0.9-0.2-1.4c0.1-0.1,0.2-0.1,0.3-0.2c0.1-0.7,0.5-1.2,1-1.7
			c0.4-0.4,0.9-0.8,1.4-0.9c0.2-0.5,0.7-0.8,1.4-0.9c1.1-0.1,2.3,0,3.4,0.1c0.1,0,0.2,0,0.3,0c0.4,0,0.8,0.1,1.2,0.3
			c0.2,0.1,0.3,0.3,0.5,0.4c0.1,0.2,0.3,0.3,0.5,0.4c0,0,0.1,0,0.1,0c0.6,0.3,1.2,0.7,1.3,1.4c0.1,0.1,0.2,0.1,0.3,0.2
			c0.1,0,0.2,0,0.2,0.1c0.3,0.1,0.5,0.3,0.6,0.5c0.2,0.3,0.3,0.7,0.2,1.1c0.5,0.6,0.7,1.4,0.3,2.1c0,0,0,0.1,0,0.1
			c0,0.1,0.1,0.2,0.1,0.3c0.1,0.1,0.1,0.2,0.1,0.3c0,0,0,0,0,0c0,0,0,0,0,0c0,0,0,0,0,0c0,0,0,0,0,0.1c0.1,0.3,0.1,0.7,0.1,1
			c0,0.4-0.1,0.7-0.3,1c-0.1,0.3-0.3,0.5-0.5,0.7c0,0.1-0.1,0.1-0.1,0.2c-0.2,0.3-0.5,0.5-0.8,0.6c-0.1,0-0.2,0-0.3,0c0,0,0,0,0,0
			c0,0-0.1,0.1-0.1,0.1c-0.1,0.1-0.2,0.1-0.3,0.2c-0.4,0.2-0.8,0.4-1.2,0.5c-0.6,0.1-1.3,0.1-1.9,0c-0.1,0-0.1,0-0.2,0
			c-1.2,0-2.4-0.3-3.4-1c0.8,1.1,1.7,3.5,2.2,4.8l0,0.1c0.1,0.2,0.3,0.3,0.4,0.2c0.1,0.2,0.2,0.4,0.3,0.6c0.1-0.2,0.3-0.3,0.4-0.5
			c0.1-0.1,0.1-0.2,0.2-0.3c0.1-0.1,0.1-0.1,0.2-0.2c0.1-0.1,0.2-0.1,0.2-0.2c0.3-0.5,0.6-0.9,1.2-1.1c0.3-0.1,0.7-0.1,1,0.1
			c0.1,0,0.2-0.1,0.3-0.1c0.4-0.3,0.8-0.6,1.3-0.6c0.6-0.1,1.2,0.1,1.6,0.5c1-0.3,2.1-0.1,2.5,0.9c0.7,0,1.4,0.4,1.9,1
			c0.2,0.3,0.4,0.8,0.4,1.2c0.4,0.3,0.6,0.7,0.8,1.1c0.2,0.3,0.2,0.7,0.2,1.1c0.2,0.7,0.3,1.4,0.1,2.1c0,0.3-0.1,0.5-0.2,0.8
			c0,0,0,0,0,0c0,0,0,0,0,0c-0.2,0.7-0.6,1.4-1,2c-0.2,0.4-0.6,0.8-1,1.1c-0.3,0.8-1,1.2-1.7,1c-0.1,0-0.2,0-0.2,0
			c-0.2,0.2-0.6,0.3-0.9,0.3c0,0-0.1,0-0.1,0c-0.1,0-0.2,0-0.3,0.1c-0.1,0-0.3,0.1-0.5,0.1c0,0-0.1,0-0.1,0
			c-0.3,0.1-0.7,0.1-1.1,0.1c-1-0.1-1.9-0.6-2.4-1.4c-0.3-0.1-0.6-0.2-0.9-0.3c0,0,0,0,0,0c0,0,0,0,0,0c0,0.7,0,1.4-0.1,2
			c0,0.3-0.1,0.7-0.1,1c0,0,0,0.1,0,0.1c0,0,0,0,0,0c0,0,0,0,0,0l0,0.1c0,0.3-0.1,0.6-0.1,0.9c-0.1,0.3-0.1,0.6-0.2,0.9
			c-0.1,0.6-0.3,1.1-0.5,1.6c0,0-0.1-0.1-0.1-0.2v0c0,0,0,0,0,0c0,0,0,0,0,0l0,0c0,0,0,0-0.1,0.1c0,0,0,0.1,0,0.1
			c0,0.1,0,0.1-0.1,0.2c0,0.1-0.1-0.1-0.1-0.1V59c0,0-0.1,0-0.1,0c0,0,0,0.1,0,0.1c0,0.1,0,0.1-0.1,0.2c0,0-0.1,0.1-0.2,0l-0.1,0.2
			c0.1,0,0.1,0.1,0.2,0.1c0.4,0.1,0.7,0.4,1,0.6c0.1,0.1,0.2,0.2,0.3,0.3c0.6,0.5,0.9,1.2,1.2,1.9c0.1,0.3,0.2,0.7,0.2,1
			c0.1,0.5,0,1-0.1,1.4c-0.1,1.1-0.6,2.1-1.5,2.8c-0.2,0.2-0.4,0.3-0.6,0.4c-0.2,0.2-0.5,0.3-0.8,0.4c-0.5,0.2-1,0.4-1.5,0.4
			c-0.4,0.1-0.9,0.1-1.3,0.1c-0.2,0-0.4,0-0.6-0.1c-0.1,0.2-0.1,0.4-0.2,0.6c0,0,0,0.1,0,0.1c-0.4,0.8-0.8,1.6-1.3,2.3
			c-0.3,0.5-0.5,0.7-0.8,1c-0.5,0.6-1,1.1-1.6,1.5c-0.3,0.2-0.6,0.4-0.9,0.7c-0.5,0.4-1.1,0.7-1.6,1c0,0,0,0,0,0
			c-0.1,0-0.2,0.1-0.3,0.1c0,0,0,0,0,0c-0.1,0.1-0.3,0.2-0.4,0.1c-0.1-0.1,0-0.1,0.1-0.2c0.1-0.1,0.2-0.1,0.3-0.2c0,0,0,0-0.1,0
			c0,0,0,0,0,0c0,0,0,0,0,0c-0.1,0.1-0.2,0.1-0.3,0.1c-0.1,0-0.1,0-0.2,0c-0.1-0.1,0.1-0.2,0.1-0.2c0.1-0.1,0.3-0.2,0.4-0.2
			c0,0,0,0-0.1,0c0,0,0,0,0-0.1c-0.1,0-0.1,0.1-0.2,0.1c-0.1,0-0.1,0-0.2,0c-0.1-0.1,0.1-0.2,0.1-0.2c0,0,0,0,0,0l0,0c0,0,0,0,0.1,0
			c-0.1,0.1-0.3,0.2-0.4,0.1c-0.1-0.1,0-0.1,0.1-0.2l0,0c0.2-0.1,0.3-0.2,0.5-0.3c0,0,0,0,0,0c0,0,0,0,0,0c-0.1-0.1,0-0.1,0-0.2
			c0.5-0.2,1-0.5,1.4-0.9c0.2-0.1,0.3-0.2,0.5-0.3c0.4-0.4,0.8-0.8,1.2-1.2c0.3-0.3,0.6-0.7,0.8-1c0.3-0.3,0.5-0.7,0.7-1.1
			c0.2-0.3,0.3-0.5,0.4-0.8c0.2-0.4,0.4-0.8,0.5-1.1c-0.1,0-0.2-0.1-0.3-0.2c-0.1-0.1-0.2-0.1-0.3-0.2c-0.1-0.1-0.3-0.2-0.4-0.3
			c-0.1,0,0.1-0.2,0.2-0.2c-0.1-0.1-0.2-0.2-0.3-0.3c-0.1-0.1,0.3-0.4,0.5-0.4c0,0,0.1-0.1,0.1-0.1c-0.1-0.1,0.1-0.3,0.2-0.2l0,0
			c0,0,0,0,0.1,0c0,0,0.1,0.1,0.1,0.1c0,0,0,0,0,0c0,0,0.1,0,0.1,0c0.2,0.2,0.5,0.3,0.7,0.5c0.3,0.1,0.5,0.2,0.8,0.2
			c0.5,0.1,0.9,0.2,1.4,0.1c0.4,0,0.7-0.1,1.1-0.2c0.1,0,0.1,0,0.2,0l0,0c0.3-0.1,0.5-0.2,0.8-0.4c0.1-0.1,0.2-0.3,0.3-0.4
			c0.2-0.2,0.3-0.4,0.4-0.6c0.2-0.4,0.3-0.8,0.3-1.3c0-0.2,0-0.3,0-0.5c0-0.2,0-0.3,0-0.5c0-0.3-0.1-0.5-0.2-0.8c0,0,0,0,0-0.1
			c-0.1-0.3-0.3-0.6-0.5-0.9c-0.1-0.1-0.1-0.2-0.2-0.2l0,0c-0.3-0.2-0.6-0.4-0.9-0.6c-0.4-0.2-0.8-0.3-1.2-0.3c-0.4,0-0.7,0-1.1,0
			c-0.5,0.1-0.8,0.3-1.2,0.6c-0.2,0.2-0.4,0.5-0.6,0.8c0,0-0.1,0-0.1,0c-0.1,0.1-0.1,0.2-0.2,0.2c-0.1,0.1-0.2,0-0.2-0.1
			c0,0,0-0.1,0-0.1c0,0,0-0.1,0-0.1c0,0,0,0,0,0c0,0.1-0.1,0.2-0.1,0.2c0,0.1-0.2,0.2-0.2,0.2c0,0-0.1,0-0.1,0
			c-0.3,0.4-1.1,0.1-1-0.5c0-0.2,0-0.3,0.1-0.5l0,0c0-0.1-0.1-0.2-0.1-0.3c0.1-3.7-0.6-7.3-1.8-10.8c-0.2-0.7-0.5-1.4-0.6-2.2
			c-0.2-0.5-0.3-1.1-0.3-1.6c0-0.8,0.2-1.6,0.5-2.3c0-0.1,0-0.1,0.1-0.2c0.2-0.4,0.3-0.9,0.4-1.3c0,0-0.1,0-0.1-0.1
			c-0.8-0.4-1.8-0.5-2.7-0.6c-0.3,0-0.5,0-0.7-0.1c-1.3-0.1-2.5-0.3-3.8-0.4c-5.1-0.4-10.2-0.5-15.4-0.3c-0.1,0-0.2,0-0.3,0
			c-0.1,0-0.1,0-0.2,0l0,0c-0.1,0-0.2,0.1-0.3,0.1c-0.4,0.1-0.9,0.3-1.3,0.5c-0.3,0.1-0.5,0.3-0.8,0.4c-0.1,0.1-0.2,0.2-0.3,0.3
			c0,0-0.1,0-0.1,0c-0.2,0.1-0.3,0.3-0.5,0.4c0,0,0,0,0,0v0c0.1,0,0.1,0.1,0,0.2c-0.1,0-0.1,0.1-0.2,0.1c-0.1,0-0.1,0.1-0.2,0.1
			c-0.1,0.1-0.2,0.1-0.2,0.1c0,0-0.1,0-0.1,0.1c0,0-0.1,0-0.1,0.1c-0.2,0.2-0.3,0.3-0.4,0.5c-0.1,0.2-0.3,0.3-0.3,0.5
			c-0.1,0.1-0.1,0.3-0.2,0.4c-0.2,0.4-0.3,0.8-0.4,1.2v0.1c0,0,0,0,0,0.1c0,0.6,0,1.2,0,1.8c0,0,0.1,0,0.1,0.1c0,0.1,0,0.2,0,0.3
			c0,0,0,0,0,0c0,0.8,0,1.7-0.1,2.5c0,0.8,0,1.6,0,2.3c0,1.3,0,2.7,0,4c0,2.2,0.1,4.5,0.3,6.7c0.1,1.2,0.3,2.5,0.5,3.7
			c0,0.2,0.1,0.4,0.1,0.6c0.1,0.5,0.3,1.1,0.4,1.6c0.1,0.2,0.1,0.5,0.2,0.7l0.7,2c0.4,1.1,0.9,2.1,1.6,3.1l0.5,0.7
			c0.3,0.3,0.6,0.6,0.8,0.8c0.3,0.3,0.6,0.6,0.8,0.8c0.4,0.3,0.9,0.6,1.4,0.9c0.1,0.1,0.3,0.1,0.4,0.2c0.2,0.1,0.5,0.2,0.7,0.2
			c0,0,0,0,0,0c0,0,0,0,0.1,0c0.1,0,0.2,0.1,0.3,0.1c0.2,0,0.4,0.1,0.6,0.1l0.1,0c0.5,0.1,1,0.1,1.5,0.2c0.1,0,0.3,0,0.4,0
			c0.1,0,0.3,0,0.4,0c0.1,0,0.3,0,0.4,0c1-0.1,2-0.3,3-0.6c0.7-0.2,1.4-0.5,2.1-0.7c0.3-0.1,0.5-0.2,0.8-0.3
			c0.3-0.1,0.5-0.2,0.8-0.4c0.4-0.2,0.8-0.4,1.1-0.6l0,0c0.1,0,0.2-0.1,0.2-0.1c0,0,0,0,0,0c0,0,0,0,0,0c0.1-0.1,0.2,0.1,0.1,0.2
			c0,0,0,0-0.1,0c0,0,0,0,0,0c0,0,0,0,0,0c0.1,0,0.3-0.1,0.3-0.1c0.1,0.1,0,0.1-0.1,0.2c-0.1,0.1-0.2,0.1-0.3,0.2c0,0,0,0,0,0
			c0,0,0.1,0,0.1,0c0,0,0.1,0,0.1-0.1c0,0,0,0,0,0c0.1,0,0.2-0.1,0.3-0.1c0,0,0,0.1,0,0.1c0,0,0,0.1,0,0.1c0,0,0,0,0,0s0,0,0,0
			c0,0,0,0,0,0c0.1,0,0,0.1,0,0.2c0,0-0.1,0-0.1,0.1c0,0,0,0-0.1,0c0,0,0,0,0,0c0.1,0,0.1,0,0.1,0c0,0,0,0.1,0,0.1c0,0,0,0.1,0,0.1
			c0,0-0.1,0.1-0.1,0.1c0,0-0.1,0-0.1,0.1c0,0-0.1,0.1-0.1,0.1c-0.3,0.2-0.7,0.4-1,0.5l-0.8,0.4c-0.3,0.2-0.6,0.3-0.9,0.4l-0.8,0.3
			c-0.4,0.2-0.9,0.4-1.3,0.5c-0.4,0.1-0.8,0.2-1.2,0.3c-0.4,0.1-0.9,0.2-1.3,0.3l0,0c-0.6,0.1-1.2,0.2-1.8,0.2
			c-1.5,0-3.1-0.1-4.5-0.7c-0.7-0.3-1.2-0.6-1.8-1.1c-0.7-0.5-1.3-1.1-1.8-1.8c-1-1.2-1.8-2.6-2.4-4.1c-0.1-0.3-0.2-0.6-0.3-0.8
			c-0.2-0.6-0.4-1.3-0.6-1.9c-0.4-1.4-0.8-2.9-1-4.4c-0.1-0.7-0.2-1.5-0.2-2.2c-0.1-0.7-0.1-1.5-0.2-2.2c-0.1-1.5-0.1-3-0.1-4.5
			c0-1.3,0-2.7,0-4c0-0.5,0-1.1,0-1.6c-0.1,0.1-0.3,0.2-0.5,0.3c-0.7,0.3-1.6,0.2-2.3,0c-0.2-0.1-0.5-0.1-0.7-0.2
			c-0.4,0.1-0.8,0-1.2-0.1c0,0,0,0,0,0.1c0,0,0,0,0,0c0,0,0,0,0,0c0,0-0.1,0-0.1-0.1c-0.1-0.1-0.2-0.1-0.3-0.2c0,0,0,0,0,0
			c-0.7-0.3-0.9-1.5-0.9-2.4c0-0.2,0-0.3,0-0.5c-0.2-0.3-0.3-0.5-0.2-0.9c0-0.1,0.1-0.2,0.1-0.3C97.4,47.3,98,46.3,98.5,45.4z"/>
		<path class="st1" d="M111.8,70.8l-2.2,2.4l-0.4-3.3L111.8,70.8z M118.3,69.9L118.3,69.9c0-0.3,0.9-0.6,2.8-0.9l0.2,0l-1.2,4.6
			C119,71.5,118.3,70.3,118.3,69.9z"/>
		<ellipse class="st1" cx="121.6" cy="57.7" rx="4.5" ry="4.1"/>
		<ellipse class="st1" cx="115" cy="53.6" rx="4.1" ry="4"/>
		<path class="st1" d="M109.4,61c-1.8,0-3.3-1.6-3.3-3.6c0-2,1.5-3.3,3.3-3.3c1.8,0,3.3,1.3,3.3,3.3C112.7,59.4,111.3,61,109.4,61z"
			/>
		<path class="st2" d="M116.1,53.1c0.2,0.4,0.1,1-0.3,1.3l0,0c-0.6,0.5-1.5,0.4-1.9-0.2l0,0c-0.2-0.4-0.2-0.9,0-1.2
			c0.2-0.4,0.7-0.6,1.2-0.6C115.5,52.4,115.9,52.7,116.1,53.1z M109.7,56.5c0.3,0.3,0.3,0.6,0.3,1c0,0.1,0,0.2-0.1,0.3
			c0,0,0,0.1,0,0.1l-0.1,0.2c0,0.1,0,0.1-0.1,0.2c-0.1,0.2-0.3,0.3-0.5,0.4c-0.4,0.1-0.9-0.1-1-0.6c0-0.1-0.1-0.1-0.1-0.2
			c0,0,0,0,0,0l0-0.1c0-0.1-0.1-0.2-0.1-0.3c-0.1-0.4,0-0.7,0.3-1c0.2-0.2,0.4-0.3,0.7-0.3C109.3,56.2,109.6,56.3,109.7,56.5z
			 M122.4,57c0.2,0.2,0.3,0.4,0.3,0.6c0,0,0,0.1,0,0.2l0,0c0,0.1,0,0.2,0,0.3c0,0.2-0.1,0.3-0.2,0.4c-0.4,0.6-1.2,0.7-1.8,0.4
			c-0.7-0.4-1-1.4-0.5-2.1l0,0l0,0c0.3-0.5,1.1-0.5,1.4,0C122.1,56.7,122.3,56.8,122.4,57z M106.9,58.3c0.2,0.9,0.9,1.7,1.8,1.9
			c0.4,0.1,0.9,0,1.3-0.1c0.4-0.2,0.7-0.6,1.2-0.6c0.1,0,0.2,0,0.3,0.1c0.2-0.6,0.5-1.2,0.9-1.8c-1.4-0.4-2-1.8-2-3.3c0,0,0,0,0-0.1
			l0-0.1c-1-0.4-2.1,0.3-2.8,1.1l-0.1,0.1C106.9,56.3,106.6,57.3,106.9,58.3z M119.3,55.1c-1.3,0.8-1.7,2.6-1.3,4
			c0.6,1.9,2.5,2,4.2,2l0.1,0c0.9,0,1.8-0.1,2.4-0.9c0.5-0.7,0.7-1.6,0.7-2.5c-0.1-1.2-0.7-2.1-1.6-2.7c-0.1,0-0.1,0-0.2,0
			c-0.7-0.2-1.4-0.4-2.2-0.5l-0.1,0C120.7,54.4,119.9,54.6,119.3,55.1z M106.6,61.8c0.4,0.2,0.8,0.3,1.3,0.3c0.1,0,0.1,0.1,0,0.1
			c-0.8,0.2-2.2,0.1-2.7-0.7c-0.2-0.3,0.2-0.7,0.5-0.5C106,61.2,106.2,61.6,106.6,61.8z M125.6,63.3c-0.6,0.2-1.8,0.3-2.3-0.3
			c-0.1-0.1-0.1-0.3,0.1-0.4c0.3-0.1,0.6,0,0.9,0.1c0.4,0.1,0.7,0.1,1.1,0c0.8-0.1,1.5-0.4,2.2-0.9c0.1-0.1,0.2,0.1,0.1,0.1
			C127.2,62.7,126.5,63.1,125.6,63.3z M119.3,53.2c0,0-0.1,0.1-0.1,0c-0.4-0.7-0.6-1.4-1.2-2c-0.6-0.5-1.3-0.9-2-1.1
			c-1.8-0.3-3.5,0.7-4.1,2.4c-0.5,1.4-0.8,4.1,1.3,4.3c0.8,0.1,1.8,0,2.6-0.3c0.3-0.1,0.4-0.3,0.6-0.4l0.1-0.1
			c0.1-0.1,0.1-0.1,0.2-0.2c0.1,0,0.2,0,0.4,0c0.1,0,0.2,0.1,0.2,0.1c0.2-0.4,0.4-0.8,0.7-1.1c0.8-0.9,1.9-1.4,3.1-1.5
			c0.8-0.1,1.7,0.1,2.3,0.5c1.3,0.3,2.5,1.4,2.9,2.6c0.7,2.1-0.1,5-2.5,5.5c-1.1,0.3-2.4,0.2-3.5,0.1c-1.1-0.2-2.1-0.7-2.8-1.7
			c-0.6-0.9-0.8-1.9-0.7-3c-1,0.7-2.9,0.6-3.8,0.5c-0.1,0-0.1,0-0.2,0c-0.5,1.1-0.9,2.3-1.1,3.5c-0.2,1.3-0.3,2.7,0.3,3.9
			c0.5,1,1.9,1.7,2.9,0.9c0.6-0.6,1.1-1.7,0.8-2.5l0,0c-0.1-0.4,0.1-0.8,0.6-0.9c0.6,0,0.9,0.6,0.9,1.1c0,1-0.5,2.2-1.1,2.9
			c-1.7,1.9-4.4,0.7-5.1-1.4c-0.5-1.3-0.3-2.8,0-4.1c0-0.1,0-0.1,0-0.2c-0.2,0.1-0.5,0.2-0.7,0.3c-0.6,0.2-1.3,0.2-2,0
			c-1.3-0.4-2.3-1.6-2.5-2.9c-0.2-1.3,0.3-2.8,1.3-3.7c0.9-0.8,2.3-1.5,3.3-0.6c0.1-1.6,0.6-3.1,1.9-4.1c1.3-0.9,3-1.2,4.4-0.6
			C118.1,50,119.6,51.7,119.3,53.2z M109.6,70.9c0,0.3,0.1,0.7,0.1,1c0,0.1,0,0.1,0,0.2l0,0.4c0,0,0,0,0,0l0,0.1
			c0.4-0.2,0.7-0.7,1-0.9l0.1-0.1c0.2-0.2,0.3-0.3,0.5-0.5c0,0,0.1-0.1,0.1-0.1c-0.6-0.1-1.3-0.3-1.9-0.5
			C109.6,70.6,109.6,70.7,109.6,70.9z M121.4,69c-0.3,0.3-0.6,0.4-1,0.6l-0.6,0.3c-0.3,0.1-0.5,0.2-0.8,0.3c0.2,0.4,0.5,0.9,0.7,1.3
			l0.3,0.5c0.1,0.2,0.2,0.3,0.3,0.5l0,0c0.1-0.6,0.3-1.2,0.5-1.8C120.8,70.1,120.9,69.5,121.4,69c0,0,0.1,0.1,0.1,0.1
			c0.2,0.4,0.1,0.9,0.1,1.3l0,0.2c0,0.4-0.1,0.9-0.1,1.3c-0.1,0.7-0.1,1.6-0.7,1.9c-0.7,0.4-1.3-0.1-1.7-0.7l0,0
			c-0.4-0.6-0.8-1.3-1.1-2l-0.3-0.6c-0.7,0.2-1.4,0.3-2.1,0.4c-1.1,0.1-2.3,0.2-3.4,0c0,0,0,0,0,0.1c-0.1,0.2-0.2,0.3-0.2,0.5
			c-0.2,0.4-0.4,0.7-0.7,1l-0.2,0.3c-0.4,0.5-0.9,1.1-1.6,1c-0.8-0.2-0.8-1.3-0.9-1.9l0-0.2c-0.1-0.4-0.1-0.9-0.1-1.3l0,0
			c0-0.5-0.1-0.9,0.2-1.3c0.2-0.2,0.5-0.4,0.8-0.2c0.2-0.2,0.5-0.2,0.7-0.2c0.2,0,0.3,0.1,0.4,0.2c0-0.1,0.4,0.1,0.5,0.2l0,0
			c0.2,0.1,0.4,0.1,0.6,0.2c0.4,0.1,0.9,0.2,1.4,0.3c1,0.1,1.9,0.1,2.9,0c1-0.1,2-0.3,3-0.5l0.1,0c0.8-0.2,1.8-0.5,2.7-0.3
			C121.4,68.8,121.4,68.9,121.4,69z"/>
	</g>
	<path class="st25" d="M27,58.9h42c12.2,0,22,9.8,22,22v0c0,10.9-7.9,19.9-18.2,21.7c0.3,1.7,1.3,3.8,3.7,5.8c0,0-5.9-1.5-9.3-5.4
		H27c-12.2,0-22-9.8-22-22v0C5,68.8,14.9,58.9,27,58.9z"/>
	<text transform="matrix(1 0 0 1 12.9484 80.2551)"><tspan x="0" y="0" class="st20 st26 st27">Hi Thao, 2 more </tspan><tspan x="0" y="11.5" class="st20 st26 st27">options ASAP!</tspan></text>
</g>
</svg>
