<?xml version="1.0" encoding="utf-8"?>
<!-- Generator: Adobe Illustrator 22.0.1, SVG Export Plug-In . SVG Version: 6.00 Build 0)  -->
<svg version="1.1" id="Layer_1" xmlns="http://www.w3.org/2000/svg" xmlns:xlink="http://www.w3.org/1999/xlink" x="0px" y="0px"
	 viewBox="0 0 46.1 7.6" style="enable-background:new 0 0 46.1 7.6;" xml:space="preserve">
<style type="text/css">
	.st0{fill:#FFD132;}
	.st1{fill:#304F4F;}
	.st2{fill:none;stroke:#FBC6AF;stroke-width:0.3135;stroke-miterlimit:10;}
	.st3{fill:#FBC6AF;}
	.st4{fill:none;stroke:#FBC6AF;stroke-width:0.3188;stroke-miterlimit:10;}
</style>
<rect x="0" y="1.3" class="st0" width="16" height="5.5"/>
<g>
	<path d="M1.4,5.6C1.2,5.4,1.1,5.1,1.1,4.7V2.2H0.6V1.9h0.5V1.1l0.4-0.5h0.7v1.3h0.9v0.4H2.2v2.5c0,0.3,0,0.5,0.1,0.6
		c0.1,0.1,0.2,0.2,0.3,0.2c0.2,0,0.3,0,0.5-0.1c0.1,0,0.1-0.1,0.2-0.1l0.1,0.2C3.3,5.6,3.2,5.7,3.1,5.8C2.9,5.9,2.6,5.9,2.3,5.9
		C1.9,5.9,1.6,5.8,1.4,5.6z"/>
	<path d="M3.9,1.4c0-0.3,0-0.5-0.1-0.6C3.7,0.6,3.5,0.5,3.3,0.5H3.2V0.3h1c0.2,0,0.4,0,0.5,0.1c0.1,0.1,0.2,0.2,0.2,0.3
		C5,0.8,5,1.1,5,1.4v0.7c0.1,0,0.1-0.1,0.3-0.2c0.2-0.1,0.5-0.2,0.7-0.2c0.5,0,0.8,0.1,1.2,0.4c0.3,0.2,0.5,0.6,0.5,1.2v2.5H6.5V3.4
		c0-0.4-0.1-0.7-0.2-0.9C6.1,2.3,5.9,2.2,5.7,2.2c-0.2,0-0.3,0.1-0.5,0.2C5.1,2.4,5.1,2.4,5,2.5v3.4H3.9V1.4z"/>
	<path d="M8.6,5.6C8.4,5.4,8.3,5.1,8.3,4.8c0-0.3,0.1-0.5,0.2-0.7c0.1-0.2,0.4-0.3,0.7-0.4c0.3-0.1,0.8-0.1,1.4-0.1h0.1
		c0-0.5-0.1-0.8-0.2-1s-0.3-0.3-0.6-0.3c-0.2,0-0.4,0.1-0.5,0.2C9.2,2.4,9.1,2.6,9,2.9H8.6c0-0.2,0-0.4,0-0.5c0-0.1,0.1-0.3,0.2-0.4
		C8.9,1.9,9.4,1.8,10,1.8c0.6,0,1,0.1,1.3,0.4c0.3,0.3,0.4,0.7,0.4,1.3v2.3h-0.7l-0.3-0.4h0c-0.1,0.1-0.1,0.2-0.2,0.2
		C10.3,5.9,10,5.9,9.7,5.9C9.2,5.9,8.9,5.8,8.6,5.6z M10.3,5.4c0.1,0,0.2-0.1,0.2-0.2c0.1-0.1,0.1-0.2,0.2-0.3V3.9h-0.1
		c-0.4,0-0.7,0.1-0.9,0.2C9.5,4.3,9.4,4.5,9.4,4.8c0,0.2,0,0.4,0.1,0.5C9.6,5.5,9.8,5.5,10,5.5C10.1,5.5,10.2,5.5,10.3,5.4z"/>
	<path d="M13.5,5.7c-0.3-0.2-0.5-0.4-0.7-0.7s-0.2-0.7-0.2-1.1s0.1-0.7,0.2-1.1s0.4-0.6,0.7-0.7c0.3-0.2,0.7-0.3,1.1-0.3
		c0.4,0,0.8,0.1,1.1,0.3c0.3,0.2,0.5,0.4,0.7,0.7c0.2,0.3,0.2,0.7,0.2,1.1s-0.1,0.7-0.2,1.1c-0.2,0.3-0.4,0.6-0.7,0.7
		c-0.3,0.2-0.7,0.3-1.1,0.3C14.2,5.9,13.8,5.9,13.5,5.7z M15.2,5.1c0.2-0.3,0.2-0.7,0.2-1.2s-0.1-0.9-0.2-1.2
		c-0.2-0.3-0.4-0.5-0.7-0.5c-0.3,0-0.5,0.2-0.7,0.5c-0.2,0.3-0.2,0.7-0.2,1.2s0.1,0.9,0.2,1.2c0.2,0.3,0.4,0.5,0.7,0.5
		C14.9,5.6,15.1,5.4,15.2,5.1z"/>
	<path d="M17.6,3c0-0.3,0-0.5-0.1-0.6c-0.1-0.1-0.2-0.2-0.5-0.2h-0.1V1.9h0.8c0.2,0,0.3,0,0.5,0.1c0.1,0,0.2,0.1,0.3,0.2
		c0.3-0.3,0.7-0.4,1.2-0.4s0.9,0.1,1.2,0.4s0.4,0.6,0.4,1.2v2.5h-1.1V3.3c0-0.4-0.1-0.7-0.2-0.9c-0.1-0.2-0.3-0.3-0.6-0.3
		c-0.2,0-0.3,0-0.5,0.1c-0.1,0-0.2,0.1-0.3,0.2l0,0.1c0,0.1,0,0.2,0,0.3v2.9h-1.1V3z"/>
	<path d="M22.5,7.2c-0.4-0.2-0.6-0.5-0.6-1c0-0.3,0.1-0.5,0.3-0.7c0.2-0.2,0.5-0.3,0.8-0.4c-0.3-0.1-0.4-0.2-0.4-0.5
		c0-0.2,0.1-0.3,0.3-0.4c-0.2-0.1-0.4-0.2-0.6-0.4c-0.2-0.2-0.2-0.4-0.2-0.7c0-0.5,0.2-0.8,0.5-1C23,1.9,23.4,1.8,24,1.8h1.8V2
		L25,2.1c0.2,0.1,0.4,0.2,0.6,0.4c0.1,0.2,0.2,0.4,0.2,0.6c0,0.5-0.2,0.8-0.5,1C25,4.3,24.6,4.4,24,4.4c-0.3,0-0.5,0-0.6,0
		c-0.1,0-0.2,0.1-0.2,0.2c0,0.1,0.1,0.2,0.2,0.2c0.1,0,0.4,0,0.6,0.1c0.6,0,1.1,0.1,1.5,0.4c0.4,0.2,0.6,0.6,0.6,1
		c0,0.5-0.2,0.8-0.6,1c-0.4,0.2-0.9,0.3-1.5,0.3C23.4,7.6,22.8,7.5,22.5,7.2z M24.7,6.9c0.2-0.2,0.2-0.4,0.2-0.7
		c0-0.2-0.1-0.5-0.2-0.6c-0.2-0.2-0.4-0.3-0.6-0.3l-0.4,0c-0.2,0.1-0.3,0.2-0.4,0.4c-0.1,0.2-0.2,0.4-0.2,0.6c0,0.3,0.1,0.5,0.2,0.7
		c0.2,0.2,0.4,0.2,0.7,0.2C24.3,7.2,24.5,7.1,24.7,6.9z M24.7,3.1c0-0.3-0.1-0.6-0.2-0.7c-0.1-0.2-0.3-0.3-0.5-0.3
		c-0.2,0-0.4,0.1-0.5,0.2c-0.1,0.2-0.2,0.4-0.2,0.7c0,0.6,0.2,1,0.7,1C24.5,4.1,24.7,3.8,24.7,3.1z"/>
	<path d="M27.2,5.6c-0.3-0.2-0.4-0.6-0.4-1.2V3c0-0.3,0-0.5-0.1-0.6s-0.2-0.2-0.5-0.2h-0.1V1.9h1c0.2,0,0.4,0,0.5,0.1
		c0.1,0.1,0.2,0.2,0.2,0.3c0,0.2,0.1,0.4,0.1,0.7v1.4c0,0.4,0.1,0.7,0.2,0.9c0.1,0.2,0.3,0.3,0.5,0.3c0.2,0,0.4-0.1,0.6-0.3
		c0.1-0.1,0.1-0.2,0.2-0.3V1.9h1.1v4h-0.7l-0.3-0.4h0c-0.1,0.1-0.2,0.2-0.3,0.2c-0.2,0.2-0.5,0.2-0.8,0.2
		C27.9,5.9,27.5,5.8,27.2,5.6z"/>
	<path d="M31.8,7.3c0.3,0,0.6-0.1,0.8-0.2C32.8,7,32.9,6.7,33,6.4L33.2,6l-1.5-3.3C31.5,2.2,31.2,2,30.9,2V1.8h0.7
		c0.2,0,0.5,0.1,0.7,0.2c0.2,0.1,0.3,0.3,0.4,0.5l1,2.1l1-2.7h0.5l-1.7,4.5c-0.2,0.4-0.3,0.7-0.6,0.9c-0.2,0.2-0.5,0.2-0.8,0.2h-0.3
		V7.3z"/>
	<path d="M36.5,5.7c-0.3-0.2-0.5-0.4-0.7-0.7c-0.2-0.3-0.2-0.7-0.2-1.1c0-0.4,0.1-0.8,0.2-1.1C36,2.4,36.2,2.2,36.5,2s0.6-0.2,1-0.2
		c0.4,0,0.7,0.1,1,0.2c0.3,0.1,0.5,0.3,0.7,0.6c0.2,0.3,0.2,0.6,0.2,0.9c0,0.1,0,0.2,0,0.4l0,0.2h-2.6c0,0.5,0.1,0.9,0.2,1.2
		c0.2,0.2,0.4,0.4,0.7,0.4c0.3,0,0.5-0.1,0.7-0.2c0.2-0.1,0.4-0.3,0.5-0.5l0.3,0.2c-0.2,0.3-0.4,0.5-0.6,0.6c-0.2,0.2-0.6,0.3-1,0.3
		C37.2,5.9,36.8,5.9,36.5,5.7z M38.2,3.6c0-0.5-0.1-0.9-0.2-1.1c-0.1-0.2-0.3-0.3-0.5-0.3c-0.2,0-0.4,0.1-0.5,0.3s-0.2,0.6-0.2,1.1
		H38.2z"/>
	<path d="M40.3,3c0-0.3,0-0.5-0.1-0.6c-0.1-0.1-0.2-0.2-0.5-0.2h-0.1V1.9h0.8c0.2,0,0.3,0,0.5,0.1c0.1,0,0.2,0.1,0.3,0.2
		c0.3-0.3,0.7-0.4,1.2-0.4c0.5,0,0.9,0.1,1.2,0.4C43.9,2.4,44,2.8,44,3.3v2.5h-1.1V3.3c0-0.4-0.1-0.7-0.2-0.9
		c-0.1-0.2-0.3-0.3-0.6-0.3c-0.2,0-0.3,0-0.5,0.1c-0.1,0-0.2,0.1-0.3,0.2l0,0.1c0,0.1,0,0.2,0,0.3v2.9h-1.1V3z"/>
	<path d="M45.1,5.8c-0.1-0.1-0.1-0.2-0.1-0.4c0-0.2,0-0.3,0.1-0.4c0.1-0.1,0.2-0.1,0.4-0.1c0.2,0,0.3,0,0.4,0.1
		C45.9,5.2,46,5.3,46,5.5c0,0.2,0,0.3-0.1,0.4C45.7,5.9,45.6,6,45.4,6C45.3,6,45.2,5.9,45.1,5.8z"/>
</g>
</svg>
