<?xml version="1.0" encoding="utf-8"?>
<!-- Generator: Adobe Illustrator 22.0.1, SVG Export Plug-In . SVG Version: 6.00 Build 0)  -->
<svg version="1.1" id="Layer_1" xmlns="http://www.w3.org/2000/svg" xmlns:xlink="http://www.w3.org/1999/xlink" x="0px" y="0px"
	 viewBox="0 0 206 232.3" style="enable-background:new 0 0 206 232.3;" xml:space="preserve">
<style type="text/css">
	.st0{fill:#FBC7B4;}
	.st1{fill-rule:evenodd;clip-rule:evenodd;fill:#FFFFFF;}
	.st2{fill-rule:evenodd;clip-rule:evenodd;}
	.st3{fill-rule:evenodd;clip-rule:evenodd;fill:#4F66AF;}
	.st4{fill-rule:evenodd;clip-rule:evenodd;fill:#8C6018;}
	.st5{fill-rule:evenodd;clip-rule:evenodd;fill:#F0ECEC;}
	.st6{fill-rule:evenodd;clip-rule:evenodd;fill:#636466;}
	.st7{fill-rule:evenodd;clip-rule:evenodd;fill:none;}
	.st8{fill-rule:evenodd;clip-rule:evenodd;fill:#4F350E;}
	.st9{fill-rule:evenodd;clip-rule:evenodd;fill:#FFCF29;}
	.st10{fill-rule:evenodd;clip-rule:evenodd;fill:#3F2A0B;}
	.st11{fill-rule:evenodd;clip-rule:evenodd;fill:#FFF8CC;}
	.st12{fill-rule:evenodd;clip-rule:evenodd;fill:#FFD69F;}
	.st13{fill-rule:evenodd;clip-rule:evenodd;fill:#134706;}
	.st14{clip-path:url(#SVGID_2_);}
	.st15{fill-rule:evenodd;clip-rule:evenodd;fill:#F4E2B3;}
	.st16{fill-rule:evenodd;clip-rule:evenodd;fill:#1F5500;}
	.st17{clip-path:url(#SVGID_4_);}
	.st18{fill-rule:evenodd;clip-rule:evenodd;fill:#FFCF29;stroke:#231F20;stroke-miterlimit:10;}
	.st19{clip-path:url(#SVGID_6_);}
	.st20{fill:#FFFFFF;}
	.st21{fill-rule:evenodd;clip-rule:evenodd;fill:#FFCF29;stroke:#231F20;stroke-width:0.3249;stroke-miterlimit:10;}
	.st22{clip-path:url(#SVGID_8_);}
	.st23{clip-path:url(#SVGID_10_);}
	.st24{clip-path:url(#SVGID_12_);}
	.st25{fill:#959E9D;}
</style>
<circle class="st0" cx="104" cy="106" r="97.4"/>
<g>
	<g>
		<path class="st20" d="M51.5,36.3c0-0.1,0-0.2,0-0.3c-2-12.4,2-20,2-20C56.3,10.4,59,4.2,68.3,4.4c9.3,0.1,10.5,2.9,10.5,2.9
			c1.7,0.8,2.5,2.3,2.9,3.7c2,2.7,2.8,6.4,3,9.8c0.5,4.8,0,8.6-1.2,11.6C84.7,35.7,86,37,86,37l-3.6,1.3c-1.7,0.1-3-0.1-4-0.3
			c-3.7,1.7-8.8,1-14.8-2.3c-0.6-0.3-1.1-0.6-1.7-0.9c0.2,2.4,0,4.7,0,4.7l-10-1.4C51.7,37,51.6,36.3,51.5,36.3L51.5,36.3z"/>
		<path class="st20" d="M51.8,38L51.8,38C52.2,40.6,52.9,44.5,51.8,38z"/>
		<path class="st20" d="M51.5,36.3c0.1,0.6,0.2,1.2,0.3,1.7l-2.2-0.3L51.5,36.3z"/>
	</g>
	<path class="st1" d="M101.5,113.6c2,0,1.2-18.9-0.2-22.4c-0.2-0.7-0.3-1.7-0.3-2.5c1.7,0.2,1.5-1,1.4-2.4c0-1.1,0.1-3.4-1.6-2.5
		c-5-10.1,0.4-36.2-12.9-38.7c-1.6-0.4-3.3-0.8-4.6-1.9c-1.4-2.6-2.2-3-4.5-3.1c-0.4-2.4-1.3-4.9-3.7-5.8c-2.2-0.9-4.8-0.9-7.2-0.5
		c-1.9,0.6-2.1,4.2-2.5,6c-2.6-0.7-5.8-2.1-7.2,1.1c-0.7-0.2-1.3-0.1-2,0.2c-5.8,0.9-11.4,3.5-13.5,9c-1.3,3.3-0.4,6.8,0.1,10.2
		c0.5,3.7-0.8,7.1-1.3,10.6c-0.8,4.9-1,8.8-0.4,12.4c-1.4,0.3-1.6,1.6-1,3c0.2,0.5,0.3,1,0.7,1.2c0.8,0.5,1.8-0.1,2.6-0.2
		c0.2,1.9,0.5,3.9,1.1,6c-0.2,0.6-0.3,1.4-0.5,2L44,95.3c-1.9,8.1-7.6,15.9-5.9,24.4c0.1,0.3,0.3,0.2,0.5,0.2
		c0.9,0.3,1.7,0.1,2.6,0.2c2.1,0,4.1,0.3,6,0.5c0.3,2.3,1.5,6,3.5,6.8c0,0,0.6-0.1,0.7-0.1C46,148.9,36.4,168.9,32.6,191
		c0,0.3,0.4,0.1,0.6,0.2c0,0.6,0.4,0.8,0.9,1c-0.7,1.5-1.4,3-2.1,4.5c-0.3,0.7-0.9,1.5-1,2.3c-0.8,0.5-1.3,1.5-1.3,2.4
		c-2.1,0.9-1.5,5.3-2,7.5c-0.5,3.3-2.8,5.6-4.4,8.2c-0.3,0.5-0.7,1.2-0.7,1.9c-1,0.5-1.4,1.5-1.3,3.2c0,2,0.6,2.8,2.1,2.8
		c4.1,0.4,8.9,0.2,13.1-0.2c3.1-0.4,5.9-0.1,5.2-3.8c-0.1-0.9,0.1-2.1-0.4-2.8c-0.3-2.2-0.1-4.4,0.6-6.5c0.4-1.8,1.2-5.5,0.9-8
		c-0.1-1.1-2.4-1.7-2.8-1.8c0.1-0.8,0.1-2.3-0.4-2.9c0.8-0.1,1-0.3,1.2-1.3c0.4-1.5,0.5-3.1,1.5-4.4c1.9,0,3.7-0.4,5.5-0.5l0.1-0.2
		c1.1,0,2.2-0.2,3.2-0.6c0.2,0.1,0.5,0.2,0.7-0.1l0.6-1.9c7.2-22.9,15.2-45.8,22.9-68.5c0.5-1.1,1-2.3,1.7-3.3
		c0.2,13.9,3.2,27.8,3.4,41.7c0.3,9.6,0.3,19,1.1,28.6c0.2,2,0.5,2,0.8,1.8c0.1,0,0.4,0.1,0.5,0.1c-0.2,2-0.4,5.3-1.3,7.4
		c-1.9,0.3-1.6,1.8-1.1,3c-0.5,0.4-0.4,1.3-0.3,1.8c-1.8,0-2.2,1.5-2.1,2.4c0.2,1.5,0.1,3.9,1.1,5.3c0.6,1.7,1.6,3.3,2,5.1
		c0.2,1.3,0.1,3.3,0.4,4.6c-0.6,0.3-0.3,0.7-0.4,1.5c-0.5,3.8,1.3,3.1,4.5,3.4c1.9,0.4,16.4,1.3,15.7-1.3c0.1-1-0.4-1.5-0.6-2.5
		c-0.1-0.3-1.9-3.4-3-4.5c-3.6-3.4-3.4-7.9-3.3-13.2c-0.2-1.4-1.3-2.8-2.7-2.6c0.4-1.5-0.3-2.8-1.9-3.3c0.2-1.7,0.3-4,0.9-5.5
		l-0.5-0.5l0.7,0.1l0.2-0.6l0.3,0.7c1.2,0,2.6-0.3,3.8-0.4c0.2,0,0.1-0.2,0.1-0.3c1.1-0.2,1.2-0.8,1-2.2c0.3-22.8,0.1-45.4-0.2-68.2
		c1.7,0.1,3.4-0.6,5.1-1c0.6,0.4,0.8-1,0.7-1.3C101.8,116.4,101.7,115,101.5,113.6z"/>
	<path class="st2" d="M61.6,39.1c-2.2-0.8-3,1-3.6,2.7c-0.7,1.9-0.9,4.1-0.8,6.2l0.1-0.1c0.8-1.1,1.9-2.8,3.4-2.5
		c0-0.8,0-1.7,0.2-2.5c-0.1-0.5-0.1-1.1-0.1-1.6c0-0.7,0.8-0.6,1.3-0.7c0.4-0.3,0.9-0.4,1.5-0.2c0.4-0.1,0.8-0.1,1.2-0.2
		c0.1-0.1,0.1-0.3,0.2-0.4C63.7,39.6,62.7,39.4,61.6,39.1z M78.5,39.9c0.1,0.4,0.3,0.8,0.5,1.2c0.2-0.1,0.5,0,0.6,0.1l0.1,0
		c0.2,0,0.4-0.1,0.4-0.1c2.3-0.3,2.1,2.8,2.2,4.4c0,0.8,0,1.6,0.1,2.4c0.7-0.2,1.6,0.2,2.1,0.5c-0.5-1.5-1-3-1.6-4.5l-0.1-0.3
		c-0.5-1.2-1-2.3-2-3.2C79.9,40.3,79.2,40.2,78.5,39.9z M54.8,83.3c-3.3-0.5-6.6-0.8-9.9-0.4c-1.5,0.2-3,0.4-4.4,0.7
		c-0.5,0.8,0.1,2.7,0.7,3.3c0.2,0.1,0.5-0.1,0.7-0.1c1.4-0.3,2.7-0.6,4.1-0.8C46,86,46,86,46.1,86l0.3,0c1.9-0.2,3.8-0.3,5.7-0.2
		l0,0c1.3,0.1,2.6,0.3,3.8,0.4C56.5,84.9,56.5,83.4,54.8,83.3z M43.5,87.8L43.5,87.8c0,0.1,0,0.1,0,0.1
		C43.5,87.9,43.5,87.9,43.5,87.8z M101.6,84.7c0,0-0.1,0-0.1,0c-0.1,0.2-0.2,0.3-0.4,0.4l-1.5,0.4c-1.3,0.3-2.5,0.7-3.8,1
		c0.2,0.8,0.4,1.6,0.6,2.5c1.7-0.6,3.6-0.4,5.4-0.8c0-0.9-0.1-1.9-0.1-2.9C101.7,85.1,101.7,84.9,101.6,84.7
		C101.6,84.6,101.6,84.7,101.6,84.7z M96.6,89.3l-0.2,0l0,0C96.5,89.3,96.5,89.3,96.6,89.3L96.6,89.3z M101.1,89.3
		c-1.5,0.1-3,0.2-4.5,0.2l0.2,0.6c1.8,6.9,3.8,13.8,4.9,20.8l0-0.7c0-0.7,0.1-1.3,0.1-2C102.1,101.9,101.6,95.6,101.1,89.3z
		 M57.4,41.3c-0.7,0-1.5,0.4-2.2,0.5c-0.9,0.2-1.9,0.3-2.8,0.6c-4.7,1.3-9.1,4.8-10,9.8c-0.6,3.5,0.9,6.8,0.8,10.3
		c-0.2,3.4-1.3,6.7-1.7,10.1c-0.5,3.5-0.7,7.1-0.3,10.5c4.2-1.2,8.5-1.3,12.8-0.6c-0.4-5.3,0.1-10.6,0.4-15.8
		c0.2-3.4,0.5-6.8,0.4-10.2c0-0.1,0.1-0.1,0.1,0c1.3,6.9,0.5,13.9,0.4,20.9c-0.1,1.8,0.1,3.5,0,5.3c1.9,0.4,1.9,2.7,1.3,4.2
		c-0.1,0.4-0.5,0.3-0.8,0.3c-0.3,0.3-1.1-0.1-1.5-0.1c-0.3,8.7-2.4,17.9,1.8,26c1.7,0,3.4-0.6,5.1-0.9l0.1,0l0,0
		c0.2-0.3,0.4-0.8,0.4-1.2c0.2-6.7-0.5-13.3-0.1-20c0.5-7.4,2.2-14.8,1.4-22.2c-0.5-6.7-2-13.2-2.7-19.8l0-0.3
		c0-0.4-0.1-0.9-0.3-1.2c-1.2,1.1-2.2,2.4-2.9,3.8c-0.4,0.7-1.4,0.4-1.5-0.4c-0.2-1.4-0.2-2.8,0-4.2l0-0.1
		C56.1,44.5,56.6,42.9,57.4,41.3z M83.8,43.3c1.2,2.4,2,4.9,2.6,7.4c0.2,0.8-0.9,1.3-1.3,0.6l0,0c-0.5-0.9-1.3-1.7-2.3-2
		c-0.7,2.8-0.3,5.9,0,8.7c0.6,4,1.1,8,1.2,12.1l0,0.2c0.2,13.9,2.3,27.7,4.5,41.3c3.6,0.6,6.8,2.2,10.1,3.6c0.6,0.2,1.2,0.4,1.8,0.6
		c-1.7-15.4-7.9-29.8-9.9-45.2c-0.5-4-0.5-8,0.2-12c0-0.1,0.1-0.1,0.1,0c0.1,1.6,0.4,3.2,0.5,4.9c0.1-0.9,0.4-1.9,0.6-2.7
		c0.3-0.9,0.4-2.3,1.1-2.8l0-0.2c0-0.1,0.1,0,0.1,0c0,0,0,0.1,0,0.1c0.5,0.1,0,0.7-0.1,1c-0.8,2.1-1,4.3-1.5,6.5
		c0.8,6.7,2.1,13.3,3.8,19.8c1.6-0.4,3.1-0.8,4.7-1.2c-3.5-11.4-1.4-24.1-6.7-34.9C91.4,45.4,86.6,45.9,83.8,43.3z M79.4,123.2
		c0-0.1,0.1-0.1,0.1,0l0,0c1.9,5.3,4.9,10,7.5,15c0.2,0.4-0.3,0.9-0.7,0.5c-1.8-2.2-3.1-4.8-4.2-7.4C80.9,128.7,80.1,126,79.4,123.2
		z M68.7,129.8c-2.6,4.3-6.3,8.6-9.1,13c-1.9,2.8-3.6,5.8-5.7,8.5c-0.4,0.6-1.2,0.1-0.9-0.6c0.8-1.8,1.7-3.5,2.7-5.2L56,145
		C59.7,139.6,63.7,134.1,68.7,129.8z M83.1,155C83.1,154.9,83.2,154.9,83.1,155c0.6,0.7,1.3,1.4,2,1.9c0.7,0.6,1.4,1,2.2,1.5
		c0.4,0.3,0.1,0.9-0.4,0.6c-0.8-0.4-1.6-1.1-2.2-1.8C84,156.6,83.6,155.8,83.1,155z M60.9,156.4c0.1,0,0.1,0.1,0,0.1
		c-2.3,0.8-4.3,2.2-6.2,3.6c-0.3,0.2-0.5-0.2-0.3-0.4c0.8-1,1.8-1.6,2.9-2.2l0.1,0C58.5,156.9,59.7,156.6,60.9,156.4z M33,191.7
		c0,0.1,0,0.2-0.1,0.3c0,0,0.1,0,0.1,0c0-0.1,0.1-0.2,0.1-0.3C33.2,191.8,33.1,191.8,33,191.7z M51.9,86.8c-0.2,0.1-0.5,0.1-0.8,0.1
		c-2.5,0.1-5,0.4-7.4,0.9c0.1,2,0.7,3.9,1.3,5.8l0.1,0.4c1.9,6.7,3.6,13.8,3.3,20.8c0,0,0,0,0.1,0c0,0.1-0.1,0.2-0.1,0.3l0,0.1
		l-0.1,0.3c-0.1,0.2-0.1,0.3-0.2,0.5c-0.1,0-0.2,0.1-0.3,0.1c-0.6,3.7,0,7.9,2.5,10.8c-1.1-2.2-1.5-4.9-1-7.3
		c0.2,0.3,0.3,0.8,0.3,1.2c0.2,1.3,0.4,2.6,0.8,3.9l0,0.1c0.4,1.3,1.1,3,2.3,3.7c0.2,0.1,0.6,0,0.7,0.3c0.1,0.2-0.1,0.6-0.3,0.6l0,0
		c-0.7,0.2-1.4-0.3-1.8-0.9l0,0.3c0,0.6-0.1,1.1-0.4,1.6c0,0.2-0.1,0.3-0.1,0.5c-0.9,5.6-2.3,11.4-4.8,16.5l-0.3,0.9
		c-4.7,14.3-9.6,28.5-12.5,43.3c3-0.3,6-0.2,9,0.1c2.8,0.3,5.8,1.1,8.5-0.2c7.3-22.4,14.9-44.7,23.2-66.8c1-3.5,2.9-6.9,3.8-10.5
		l0.1-0.2c0.2-0.7,0.3-1.2,0.2-2l0-0.1c0-0.5,0-1.3,0.5-1.4c0.1,0,0.2,0,0.3,0.1c0.4,0.5,0,1,0.1,1.6c0.3,2-0.5,3.9-1.4,5.7
		c0.1,0.1,0.1,0.2,0.1,0.3c0.1,1.1,0.1,2.2,0.1,3.2c0.1,3.1,0.3,6.2,0.6,9.3c0.8,5.7,1.9,11.3,2.4,16.9c1.3,13.2,1.1,26.6,2.1,39.8
		c0,1.2,0.4,2.4,0,3.5c0.2-0.2,0.6-0.1,0.8,0.1c4-0.3,8-0.1,11.9-0.4c0-0.2,0-0.3,0-0.5c-0.1-0.3,0.1-0.6,0.1-0.8
		c-0.5-2.8-0.1-5.7-0.2-8.5c0-2.7,0-5.3,0-8c0.2-16.6-0.1-33.3,0.3-49.9c0-0.8,0.1-1.6,0.1-2.4c-0.2-0.2-0.1-0.6-0.1-0.9l0-0.3
		c0.1-1.3,0.1-2.5-0.4-3.8c0-0.2,0-0.3,0.1-0.4c-2.4-1.1-4.9-2-7.4-2.9c-0.4,0.1-0.9-0.2-1-0.6c-0.9-4.8-1.7-9.6-2.3-14.4
		c-4.2,2.7-9.2,3.2-13.9,4.3l-0.9,0.2c-2.2,0.6-4.5,1.2-6.2,2.8c-0.2,2.5,1.1,9.6-2.7,9.4c-1.2,0.4-2.5,0.7-3.8,0.8
		c1.5,2.8,4.2,6.5,2,9.6c-0.3,0.3-0.7,0-1-0.2c0,1.8,0.1,3.6,0.1,5.4c0,0.2-0.2,0.5-0.5,0.4c-1.4-0.5-1.5-2.1-1.7-3.3
		c-0.2-1.1-0.4-2.2-0.6-3.3c-0.1,2,0.4,4,0,6c-0.4,1.1-1.5,0.8-1.9-0.2l0,0c-0.7-1.9-1-3.9-1.2-5.9l0-0.1c0-0.6-0.1-1.3,0-1.8
		c0.3,0.6,0.2,1.5,0.4,2.2c0.2,1.5,0.6,3,1,4.4l0,0.1c0.2,0.8,1,2.5,1,0.4c0-1-0.1-2.1-0.1-3.1l0-0.1c-0.1-1.4-0.1-2.9,0.4-4.3
		c0.1-0.4,0.7-0.4,0.8,0c0.3,1.7,0.6,3.4,0.8,5c0.2,1,0.2,2.2,0.8,3.1c0-1.9-0.1-3.9-0.2-5.8l0-0.1c-0.1-0.2-0.2-0.6,0-0.8
		c0.1-0.4,0.7-0.4,0.8,0.1c0,0.1,0,0.2,0,0.3c0.2,0.3,0.4,0.5,0.7,0.8c1.7-3.4-3.8-9.4-4.6-13.2c-2.2-7.5-0.9-15.5-0.3-23.1
		C53.2,86.8,52.5,86.8,51.9,86.8z M91.4,192.1l0,0.1c0,0,0,0,0,0.1c0,0,0.1,0,0.1-0.1C91.4,192.2,91.4,192.1,91.4,192.1z
		 M42.6,193.7c-0.1,0.1-0.2,0.2-0.2,0.2c0.1,0,0.2-0.1,0.3-0.1C42.7,193.8,42.6,193.8,42.6,193.7z M83.6,191.5l-0.1,0.3
		c-0.3,1.3-0.5,2.6-1,3.8l0,0c-0.1,0.3-0.2,1.8-0.3,0.7c-0.1,0.2-0.1,0.3-0.2,0.5l0.4-0.1c2.3-0.3,4.7-0.5,7,0.1
		c-0.2-1.8,0.1-3.5,0.6-5.2C87.9,191.7,85.8,191.7,83.6,191.5z M34.4,192c0,0.2-0.1,0.4-0.2,0.6c-0.5,2.1-1.3,4.1-2.1,6.1
		c2.5-0.4,4.9-0.1,7.1,0.6c0-0.6,0.3-1.3,0.5-1.8c0.4-1.1,0.8-2.2,1.4-3.2l0.1-0.1c0.2-0.4,0.4-0.8,0.6-1.1
		C39.3,192.7,36.8,192.3,34.4,192z M85.4,199.1c2.5-0.5,3.4,2.8,1.4,4C83.8,204.6,81.9,200,85.4,199.1z M33.1,201.1
		c0.5-0.4,1.4-0.4,1.9,0c0.5,0.1,0.8,0.6,0.8,1c0.7,1.2-0.1,2.9-1.5,3.2C31.3,206,30,201.8,33.1,201.1z M38.4,200.5l-0.1,0
		c-2.4-0.6-7.6-1.5-8.1,1.7c-0.2,1.4,0.4,2.8,0.4,4.2c2.4-1,5.1-1,7.7-0.3c0.2-1.5,0.4-2.9,0.7-4.4l0-0.2
		C39,201,39,200.6,38.4,200.5z M85.1,207.5c1.2-0.2,2.5-0.3,3.8-0.2l0.1,0c0.7,0.1,3.2,0.2,2.6,1.4c-0.1,0.2-0.4,0.2-0.6,0.1
		c-0.6-0.3-1.3-0.4-1.9-0.5c-2.3-0.3-4.7-0.2-7,0.4c0,0.1-0.1,0.2-0.2,0.2c-0.2,0-0.2-0.2-0.1-0.4c0.1-0.2,0.4-0.2,0.6-0.3
		C83.2,207.9,84.1,207.6,85.1,207.5z M33.6,208.2c1.5-0.1,3.1,0.1,4.6,0.5l0.3,0.1c0.4,0.1,0.9,0.3,1,0.7c0,0.2,0,0.3-0.2,0.4
		c-0.5,0.4-1.6-0.4-2.3-0.5c-2.3-0.7-4.8-0.7-7.2-0.2l-0.1,0l0.1,0.4c0.1,0.2-0.5-0.3-0.3-0.5C30.8,208.5,32.2,208.3,33.6,208.2z
		 M83.6,209.8c1.9-0.9,4.1-1.1,6.1-0.7l0.1,0c0.9,0.3,2.4,0.6,2.7,1.5c0.1,0.2-0.1,0.5-0.3,0.6c-0.8,0.1-1.5-0.4-2.2-0.7
		c-2.1-0.8-4.4-1-6.5-0.4c0,0.1,0,0.2,0,0.3c0,0,0.1,0,0,0.1C83.2,210.7,82.8,210.1,83.6,209.8z M28.7,211.3c2.2-1,4.7-1.1,7-0.8
		l0.2,0c0.7,0.1,1.7,0.1,2.1,0.8c0.1,0.2,0,0.5-0.2,0.6c-0.7,0.3-1.5-0.3-2.1-0.4c-1.9-0.5-4-0.6-6-0.2c0,0.1-0.3,0-0.4,0.1
		C29.2,211.3,28.6,211.5,28.7,211.3z M88.8,211.5c0.7-0.1,1.4,0,2.1,0l0.2,0c0.3,0,0.6,0.1,1,0.1l0.1,0c0.4,0.1,1.3,0.8,0.6,1.1
		c-0.7,0.2-1.3,0-2-0.2c-1.9-0.5-4-0.3-5.9,0.2l0.3,0.1c0,0,0,0,0,0c-0.2,0.2-0.5,0.1-0.6-0.1c0,0,0-0.1,0-0.1
		C85.9,212,87.3,211.6,88.8,211.5z M32.3,212.8c0.8-0.1,5.1-0.2,4.7,1.1c-0.1,0.3-0.3,0.3-0.6,0.3c-2.7-0.7-5.6-1-8.3-0.1
		c0,0-0.1-0.1,0-0.1C29.4,213.4,30.8,212.9,32.3,212.8z M83.8,216.3c-0.3-0.5,1.2,0.2,1.5,0.2c1.3,0.3,2.6,0.6,4,0.7
		c0.9,0.1,1.8,0.1,2.7,0c0.7,0,1.3-0.1,2-0.2l0,0c0.4,0,1.2,0.2,0.7,0.7c-0.8,0.6-1.9,0.4-2.8,0.5C89.1,218.2,86.2,217.7,83.8,216.3
		z M36.3,217.9c0.5-0.1,0.9-0.3,1.4-0.2c1.8,1.3-5.4,1.7-6,1.6c-1.6,0-3.1-0.2-4.6-0.7l-0.1,0c-0.2-0.1-1.6-0.5-1.3-0.6
		c2,0.2,4,0.6,6.1,0.5c1,0,2.1-0.1,3.1-0.2C35.3,218.1,35.8,218.1,36.3,217.9z M90.3,198.6c-2.3-1.2-5-0.8-7.5-0.6l-0.1,0
		c-0.6,0.1-1.5,0.1-1.8,0.8c-0.4,1,0.3,3.3,0.5,4.5l0.1,0.4c0.2,0.7,0.3,1.4,0.4,2.1c0,0,0,0,0,0c-0.9-0.9-1.2-2.1-1.6-3.3
		c-0.2,0.1-0.3,0.2-0.5,0.3c-0.6,2.1-0.8,4.4-0.3,6.5l0,0.1c0.6,2.7,2.5,4.8,2.7,7.6c0.1,1.1,0.1,2.3,0.4,3.4c0.2,0,0.3,0.2,0.4,0.3
		l1.1,0c5.1,0,10.2,0.1,15.3,0.3c-0.2-1.4-1.4-2.7-2.3-3.7c-2.7-2.8-3.9-6.8-3.5-10.7c0.2-1.9,1.3-5-1.3-5.7
		c-0.2,1.6-0.5,3.2-0.6,4.7c0.5,0.2,0.5,0.9-0.1,0.9c-0.3,0.9-1.2,0.5-1.1-0.3c-3.4-1.2-5.3-1.7-8.6,0.2c-0.1,0,0.3-0.4,0.3-0.4
		c1-1.1,2.6-1.6,4.1-1.7c1.5,0,2.9,0.6,4.3,1c0.2-1.5,0.4-3,0.5-4.5l0-0.3C91.1,199.7,91.1,199,90.3,198.6z M28.9,202.3
		c-0.5,0.6-0.5,2.2-0.5,2.7c-0.1,1.1,0,2.2-0.1,3.4c0,4.7-2.7,7.1-4.7,10.8c-0.6,0.9,0.3,1,0.9,1.3c4.2,2,9.2,2.3,13.6,0.8
		c2.2-0.6,1.7-2.1,1.5-4c-0.2-3.7,1.8-7.1,2.4-10.7l0-0.1c0.2-1.1,0.5-3.7-1.2-3.2c-0.4,0.2-0.7-0.1-0.8-0.4c0,0-0.1,0-0.1,0
		c-0.2,1.2-0.4,2.4-0.6,3.6c0.2,0.1,0.3,0.2,0.5,0.4c0.2,0.2,0,0.5-0.2,0.5c-0.1,0-0.3,0-0.4-0.1c-0.1,1-1.8,0.5-1.3-0.4
		c-2.4-0.8-5-0.8-7.5-0.1l0,0c-0.2,0.1-1.5,0.3-1.1,0.6c0.2,0-0.2,0.3-0.3-0.1c0-0.5,1-0.7,1.4-0.9
		C29.6,205.2,29.1,203.7,28.9,202.3z M21.9,220.6c-0.3,1-0.2,2-0.1,3c0.1,1.1,0.6,1.1,1.5,1.2c3.6,0.3,7.2,0.3,10.8,0
		c1.9-0.2,3.9-0.2,5.8-0.6c0.9-0.4,0.4-1.7,0.4-2.4c-4.2,2.7-10.6,2.4-15.2,0.8l-0.1,0C23.9,222,22.5,221.8,21.9,220.6z M81.6,221.4
		l0,0.1c-0.1,1.5,0,2.8,1.9,2.8c1.3,0.1,2.5,0.3,3.8,0.4l0.5,0c3.8,0.3,7.6,0.5,11.4,0l0.2,0c0.3,0,0.9,0,1.1-0.3
		c0.3-0.4,0-1.2-0.1-1.6c-5.9-0.1-11.8-0.3-17.6-0.2c-0.6,0-0.9-0.5-0.8-1C81.7,221.5,81.6,221.4,81.6,221.4z M65.9,36.5
		c0.3,0.2,0.2,0.8,0.3,1.1l0,0c0.1,1,0,1.9-0.3,2.8l0,0.1c-0.1,0.5-0.2,1-0.6,1.3c-0.4,0.3-1,0.1-1-0.4c0-0.3,0.1-0.5,0.2-0.7
		c-0.8,0.3-1.5,0.6-2.3,0.9c-0.5,4.1,5.2,9,8.5,10.8c4.8,2.6,8.8-1.4,9.4-6.2c0.1-0.6,0.2-1.3,0.2-1.9c0-0.5-0.1-1.3,0.3-1.7
		c-0.3,0-0.5,0-0.7,0.1l0,0c0.1,0.3,0.3,0.9-0.1,0.9c-1-0.1-1.4-1.8-1.6-2.6c-0.2-0.6-0.4-2.8,0.1-3.1c0.1,0.5,0.1,1.1,0.3,1.7
		c0.4,0.2,1.1,0.2,1.3,0.2c2,0,3.1,1.5,4,3.1c2.4,2,5.8,1.6,8.4,3.2c7.9,5.7,5.3,27.9,9.2,37.4c0.8-0.3,1.6,0.3,1.7,1.1
		c0.1,0.6,0.1,1.3,0.1,1.9l0,0.1c0.1,1.3,0.3,2.7-1.4,2.7c0,0.7,0.1,1.4,0.3,2.1c0.9,4.1,1.4,8.4,1.5,12.6l0,0.3
		c0,2.2,0.1,9.1-1.2,9.9l0.1,0.5c0.1,1.2,0.3,2.4,0.4,3.6c0.1,0.6-0.3,2.1-1.1,1.7c-1.6,0.4-3.1,1-4.7,1c0.4,13.1,0.2,26.2,0.3,39.3
		c-0.1,9.6,0.4,19.4-0.1,29l0,0.1c0.1,1.1,0.2,2-1.1,2.4c0,0.3-0.2,0.4-0.5,0.4c-0.7,0.1-1.4,0.2-2.1,0.3c-0.6,0-1.3,0.2-2,0.1
		c0.1,0.1-0.1,0.1-0.1,0c-0.6,1.5-0.7,3-0.9,4.6c1.4,0.5,2.2,1.7,1.9,3.3c1.4,0.1,2.5,1.6,2.7,3c0.1,0.9,0,1.8,0,2.7
		c-0.2,3.1,0.3,6.5,2.3,9l0.1,0.1c1.3,1.5,3,2.9,3.5,4.9c0.2,0.1,0.3,0.2,0.3,0.4l0.4,1.4l0.2,0.7c0.1,0.5,0.3,1.1,0.2,1.6l0,0.1
		c-0.4,3.4-14.4,1.8-17.1,1.5c-1.1-0.2-2.3-0.1-3.3-0.7c-1.2-0.8-1.4-2.4-1.2-3.8l0-0.1c0.1-0.6,0.2-1.2,0.8-1.6
		c-0.2-1.2-0.1-2.5-0.3-3.7c-0.3-1.7-1.4-3.2-1.9-4.9c-0.8-0.9-0.8-2.2-1-3.3c-0.1-1.1-0.2-2.1-0.3-3.2c-0.1-1.4,0.5-2.6,2-2.8
		c-0.1-0.3,0.1-0.5,0.3-0.7c-0.4-1.6-0.6-3.7,1.4-4.3c0.7-1.8,0.9-3.8,1.1-5.7c0,0,0,0-0.1,0c-1,0.4-1.2-1.5-1.2-2.2
		c-0.9-9.6-0.8-19.2-1.2-28.8l0-0.7c-0.3-6.3-0.5-12.7-1.6-18.9c-1.1-7-1.4-14-1.8-21c-0.4,0.7-0.7,1.5-1,2.2
		c-4.7,13.7-9.4,27.3-14,41c-3.3,9.9-6.5,19.9-9.7,29.8c-0.2,0.5-0.7,0.6-1.1,0.5c-1,0.3-2,0.5-3,0.6c-0.1,0.1-0.2,0.2-0.4,0.2
		c-0.5-0.1-1.2,0.1-1.7,0.2c-1.2,0.1-2.4,0.3-3.7,0.3c-0.8,1-0.8,2.3-1.2,3.5c-0.2,0.6-0.2,1.9-0.9,2.1c0.3,0.4,0.3,0.9,0.2,1.3
		c0.2,0.1,0.4,0.1,0.7,0.2c0.2,0.1,0.5,0.1,0.6,0.3c4,0.7,1.1,8.2,0.4,10.7c-0.7,2-0.9,4.2-0.6,6.3c0.5,0.7,0.3,1.6,0.4,2.4
		c0,0.7,0.1,1.4,0.1,2.1c-0.1,2.9-3.6,2.4-5.6,2.8c-1.2,0.1-2.5,0.2-3.7,0.3c-3.2,0.2-6.4,0.2-9.5-0.1c-2-0.1-2.5-1.4-2.5-3.2l0-0.1
		c0-1.2,0.2-2.7,1.3-3.4c0.1-0.7,0.4-1.3,0.7-1.9c1.6-2.6,3.9-5,4.4-8.1c0.5-2.1-0.1-6.7,2.1-7.7c0-0.9,0.6-1.9,1.3-2.4
		c0.1-0.8,0.7-1.5,1-2.2c0.7-1.4,1.3-2.8,1.9-4.1c-0.3-0.1-0.7-0.4-0.7-0.8c-0.3,0-0.6-0.2-0.6-0.6c0.1-1.2,0.4-2.3,0.6-3.4l0-0.1
		c4.2-20.5,13-39.7,18.1-59.9c-0.7,0.1-1.3-0.7-1.7-1.2c-1.2-1.7-2-3.7-2.3-5.7l-0.6-0.1c-1.9-0.2-3.9-0.4-5.8-0.4l-0.5,0
		c-0.5,0-1,0-1.5-0.2c-0.3,0-0.7-0.2-0.8-0.5c-1.4-7.2,2.1-14,4.6-20.5c0.6-1.6,1-3.2,1.4-4.9c0-0.1,0.1,0,0.1,0
		c-0.1,1.8-0.5,3.7-1,5.5c-1.5,6-4.7,11.9-3.9,18.3c2.4-1.9,5.3-3.2,8.3-3.8c0.2-0.8,0.4-1.5,0.5-2.3c-0.1-1.2-0.2-2.3-0.4-3.5
		c-0.4-3.5-0.9-7-1.7-10.4c-1.2-3.5-2.2-7-2.5-10.6l-0.1,0c-0.8,0.2-1.7,0.5-2.4,0c-0.5-0.3-0.7-0.9-0.9-1.4
		c-0.5-1.3-0.7-2.9,0.9-3.5c-0.6-4-0.2-8.3,0.5-12.3c0.6-3.5,1.8-7,1.3-10.6c-0.5-3.5-1.5-7.1-0.1-10.5c2.3-5.6,8-8.3,13.6-9.2
		l0.1,0c0.7-0.2,1.3-0.4,2.1-0.3c1.7-3.2,4.5-1.9,7.2-1.2c0.2-0.5,0.3-1.1,0.5-1.6C65.6,37.3,65.6,36.6,65.9,36.5z"/>
	<path class="st2" d="M81,19.2c0.5-0.2,1.1-0.2,1.6,0c0.5,0.2,1,0.5,1.3,0.9c0.2,0.2,0.3,0.4,0.4,0.6c0.1,0.1,0.1,0.3,0.2,0.5
		c0.4,0.2,0.6,0.7,0.2,1.1l0,0l0,0c-0.2,0.2-0.5,0.3-0.7,0.2c-0.6-0.2-0.7-0.6-0.9-1.1c-0.1-0.3-0.4-0.6-0.6-0.8
		c-0.7-0.5-1.7-0.6-2.5-0.4c0,0-0.1,0-0.1-0.1c0.1-0.2,0.2-0.4,0.4-0.5C80.5,19.4,80.7,19.3,81,19.2z M71.1,20
		c0.8-0.8,2.7-1.5,3.3-0.1c0.1,0.3-0.1,0.6-0.4,0.7c-0.5,0.1-0.9-0.1-1.3-0.1c-0.4,0-0.8,0.2-1.1,0.4c-0.8,0.6-1,1.7-1.6,2.5
		c0,0-0.1,0-0.1,0C69.8,22.2,70.3,20.8,71.1,20z M72.4,22.8c0.9-0.3,1.9,0.2,2.4,1c0.2,0,0.3,0.2,0.3,0.4c0,0.3-0.1,0.4-0.3,0.6
		c-0.3,0.3-0.8,0.2-1-0.2l0,0c-0.1-0.5-0.7-0.8-1.2-0.7c-0.6,0.2-0.6,0.8-1,1.2c0,0-0.1,0-0.2,0c-0.4-0.2-0.4-0.9-0.2-1.2
		C71.5,23.4,71.9,23,72.4,22.8z M81.9,22.5c1.3-0.1,2.1,1.3,1.8,2.5c-0.1,0.2-0.3,0.4-0.5,0.4l-0.1,0c0,0-0.1,0-0.1,0
		c-0.2-0.1-0.4-0.3-0.4-0.5l0-0.1c0-0.5,0-1.2-0.7-1.3c-0.5-0.1-0.9,0.4-0.9,0.9c0,0.1-0.1,0.1-0.2,0.1c-0.4-0.2-0.5-0.7-0.3-1.1
		C80.9,22.8,81.4,22.5,81.9,22.5z M78,25.2c0.9-0.5,3.3-1.1,3.5,0.6c0.1,0.8-0.5,1.4-1.2,1.7l0,0c-0.6,0.3-1.8,0.6-2.3,0
		c-0.5-0.5,0.2-1.3,0.7-0.9c0.3,0.2,0.9,0.1,1.2,0l0,0c0.4-0.1,0.8-0.4,0.7-0.9c-0.1-0.4-0.7-0.5-1-0.5c-0.5,0-1,0.1-1.5,0.1
		C77.9,25.4,77.9,25.3,78,25.2z M80.2,29.7c0,0.5,0.1,1,0.1,1.5l0.6,0c0.1,0,0.2,0,0.3,0c0.4,0,0.9-0.1,1.3,0c0-0.4-0.1-0.7-0.4-1
		C81.6,29.7,80.8,29.9,80.2,29.7z M79.8,29.6c-0.8,0.1-1.6,0.1-2.3,0.2c-0.3,0-0.6,0-0.9,0c0,0.2,0,0.3,0,0.5c0,0.3,0.1,0.6,0.1,1
		l0,0.3c1,0,1.9-0.1,2.9-0.1l0.1,0l0-0.5c0-0.4,0.1-0.7,0.1-1.1l0,0C79.9,29.6,79.9,29.6,79.8,29.6z M76.2,29.7l-0.3,0
		c-0.7-0.1-1.5-0.2-2.2-0.1c-0.1,0-0.2,0-0.3,0c0.1,0.5,0.1,1,0.2,1.5c0,0.2,0,0.4,0.1,0.5l0.1,0c0.8,0,1.6-0.1,2.4-0.1
		c0-0.1,0-0.3,0-0.4l0-0.1C76.1,30.5,76.1,30.1,76.2,29.7z M73.1,29.6c-0.6,0.1-1.2,0.4-1.5,1c-0.2,0.3-0.3,0.7-0.2,1.1
		c0.5-0.1,1-0.1,1.5-0.1c0-0.1,0-0.2,0-0.3l0-0.2C72.9,30.6,72.9,30.1,73.1,29.6z M82.4,31.7c-0.4,0.1-0.8,0-1.1,0.1
		c-0.3,0-0.7,0-1,0c0,0.2,0,0.4,0,0.7c0,0.3,0,0.6,0.1,0.9c0.7-0.2,1.3-0.6,1.7-1.2C82.2,32.1,82.3,31.9,82.4,31.7z M71.4,31.9
		c0,0.2,0.1,0.4,0.1,0.5c0.3,0.7,1,1.1,1.7,1.2c-0.1,0-0.2-0.1-0.3-0.3c-0.1-0.4-0.1-0.9-0.1-1.3C72.4,31.9,71.9,31.9,71.4,31.9z
		 M76.1,31.9c-0.7,0-1.4,0-2.1,0l-0.3,0c0.1,0.4,0.1,0.7,0.2,1.1c0.1,0.4-0.3,0.6-0.6,0.6c0,0,0.1,0,0.1,0c0.9,0.1,1.8,0.1,2.7,0.1
		c0-0.3,0-0.6,0-0.8l0,0C76.1,32.6,76.1,32.3,76.1,31.9z M79.8,31.9L79.8,31.9c-1,0-2,0.1-2.9,0.1c0,0.2,0.1,0.5,0.1,0.7
		c0,0.2,0.1,0.4,0.1,0.6c0,0.1,0.1,0.2,0,0.3l0,0c0,0,0.1,0.1,0.1,0.1c0,0,0,0,0,0.1c0.8,0,1.6,0,2.3-0.1l0,0c0-0.1,0.1-0.2,0.1-0.2
		c0.1-0.3,0-0.6,0.1-1C79.8,32.2,79.8,32,79.8,31.9z M73.2,28.4c1.3-0.2,2.6,0.2,3.9,0.4c0.7,0.1,1.4,0.2,2.1,0.2c0.1,0,0.3,0,0.4,0
		c0-0.1,0.1-0.2,0.2-0.3c0.3-0.1,0.5-0.2,0.9-0.2c0.3,0,0.6,0,0.9,0.1c0.5,0.1,1.1,0.3,1.5,0.7c0.9,0.9,0.8,2.4,0.1,3.4
		c-1.5,2.1-4.2,2.1-6.5,2.1l-0.2,0c-2.1,0-5.1,0.3-6.1-2.1c-0.4-0.9-0.3-1.9,0.1-2.7C71.1,29.1,72.1,28.6,73.2,28.4z"/>
	<path class="st21" d="M64.4,40.7l-2.3,0.9c0,0,1.8,8.2,10.3,11.5c0,0,7.8,0.8,8-10.5l-1.5-1.3c0,0,3.7-1.1,3.3,4.4
		c0,0-0.9,4.4-0.8,5.7c0,0,0.8,9.4,1,13.6c0,0,1.4,21.7,0.7,23l1.6,10.3c0,0-8.1,5.5-14.1,4.4c0,0-4.3-0.6-7.1,2.6
		c0,0-2.2-10.8-0.2-22.5c0,0,1.5-9.9,1-15.7c0,0-2.6-11.9-2.5-16.1l0-7.4C61.9,43.5,59.6,40.2,64.4,40.7z"/>
	<path class="st2" d="M77.7,9.4c0.1-0.3,0.7-0.3,0.6,0.1c-0.1,1.1-0.7,2.2-1.3,3.1c-0.6,0.9-1.4,1.8-2.3,2.5c0,0-0.1,0,0,0
		c0.8-0.7,1.4-1.6,1.9-2.6c0.3-0.5,0.5-1,0.6-1.5C77.4,10.4,77.5,9.9,77.7,9.4z M80.7,9.6c0.1-0.4,0.7-0.3,0.7,0.1
		c-0.1,1-0.6,2.1-1.1,3c-0.6,0.9-1.2,1.7-2,2.4c0,0-0.1,0-0.1-0.1c0.7-0.8,1.2-1.6,1.7-2.6C80.3,11.5,80.4,10.5,80.7,9.6z M75.2,8.9
		c0.2-0.1,0.4,0,0.4,0.2c0.2,0.6-0.2,1.4-0.5,1.9c-0.3,0.6-0.7,1.2-1.2,1.7c-0.9,1-2,1.9-3.2,2.5c-0.1,0-0.2-0.1-0.1-0.1
		c1-0.9,1.8-1.8,2.6-2.9c0.4-0.5,0.7-1.1,1-1.7C74.5,9.9,74.7,9.2,75.2,8.9z M70.4,3.9c3.3-0.2,6.7,0.2,9.7,1.7
		c1.6,0.8,2.8,2.1,3.7,3.7c0.5,0.9,0.9,2,1.1,3.1c0.2,1.1,0,2.1-0.7,3c-0.3,0.3-0.8,0-0.7-0.4c0.4-2.2-0.3-4.3-1.5-6.1
		c-1.8-2.6-4.8-3.8-7.8-4.3c-1.5-0.3-3-0.4-4.5-0.3c-1.1,0-2.3,0.1-3.4,0.5c0,0-0.1-0.1,0-0.1C67.6,4.2,69,4,70.4,3.9z M71.1,9.9
		c0.3-0.3,0.8,0,0.7,0.4c-0.2,0.9-0.7,1.6-1.3,2.3c-0.5,0.7-1.1,1.3-1.7,1.9c-0.6,0.6-1.2,1.1-1.9,1.6l-0.2,0.1
		c-0.5,0.3-1,0.7-1.5,0.9c-0.1,1.1-0.4,2.2-0.8,3.3c-0.4,1-0.8,2-1.4,2.9l-0.1,0.1c-0.5,0.8-1.2,1.8-2.1,2.3c0,0-0.1,0-0.1,0
		c0.2,0.1,0.4,0.3,0.5,0.5c0.1,0.3-0.1,0.5-0.3,0.6c-0.5,0.2-0.9-0.1-1.3-0.5c0,0,0,0.1,0,0.1c-0.1,0.3-0.1,0.5-0.4,0.7
		c-0.1,0.1-0.3,0-0.3-0.1c-0.2-0.3,0-0.7,0.2-1c0,0,0.1-0.1,0.1-0.1c-0.1-0.1-0.2-0.1-0.3-0.2c-0.5-0.3-1.2-0.3-1.5,0.3
		c0,0-0.1,0-0.1,0c0-0.7,0.7-1.1,1.4-1.1c0.5,0,0.9,0.1,1.3,0.3l0.1,0c0.2,0.1,0.3,0.1,0.5,0.2c0-0.1,0-0.1,0-0.2
		c0.5-0.9,1.3-1.7,1.9-2.5c0.6-0.9,1.1-1.8,1.5-2.7c0.4-0.9,0.7-1.9,0.9-2.9c-0.1,0-0.1,0-0.1-0.1c0-0.2,0.1-0.3,0.3-0.4
		c0.2-0.9,0.3-1.8,0.2-2.8c0-0.1,0.1-0.1,0.1,0c0.1,0.8,0.1,1.7,0,2.5c0.4-0.4,0.8-0.7,1.2-1.1c0.6-0.6,1.1-1.1,1.7-1.7
		c0.5-0.6,1.1-1.2,1.5-1.9l0.2-0.4C70.3,10.9,70.7,10.4,71.1,9.9z M55.9,24.9c0.7-1.5,2.8-2.9,4.3-1.5c0,0,0,0.1,0,0.1
		c-0.9-0.4-2,0.1-2.6,0.8c-0.5,0.5-0.8,1.2-0.8,1.9c-0.1,0.7,0.1,1.5,0.6,2c0.3,0.3,0.6,0.6,1,0.6c0.4,0,0.7-0.3,1.1-0.3
		c0.3-0.1,0.5,0.1,0.5,0.4c0.1,0.6-0.6,1.1-1.1,1.2c-0.6,0.1-1.2,0-1.7-0.3C55.5,28.8,55.2,26.6,55.9,24.9z M83,37.1
		C83,37,83,37,83,37.1c0.8,0.3,1.6,0.5,2.4,0.6c0.4,0,0.4,0.6,0,0.6C84.6,38.2,83.6,37.8,83,37.1z M61.4,35.9L61.4,35.9
		c0.1-0.1,0.2,0,0.2,0c0.1,0.3,0.1,0.8,0.1,1.1l0,0.1c0,0.4,0,0.7-0.2,1.1c-0.2,0.4-0.7,0.2-0.8-0.2c0-0.4,0.1-0.8,0.3-1.2
		c0.1-0.2,0.1-0.5,0.3-0.7c-0.1,0-0.2,0.1-0.3,0.1c0,0-0.1-0.1,0-0.1C61.1,36,61.3,36,61.4,35.9z M56,33.4
		C56,33.3,56.1,33.3,56,33.4c0,0.9-0.1,1.8-0.2,2.7c-0.1,0.4-0.2,0.8-0.2,1.2l0,0.2c-0.1,0.4-0.2,0.9-0.4,1.3
		c-0.2,0.4-0.7,0.1-0.7-0.3c0.1-0.4,0.3-0.9,0.5-1.3c0.1-0.4,0.3-0.8,0.4-1.2C55.7,35.1,55.9,34.2,56,33.4z M58.9,35
		C58.9,35,59,35,58.9,35c0,0.6,0,1.3-0.1,1.9c0,0.3-0.1,0.6-0.1,0.9c0,0.3,0,0.6-0.2,0.9c-0.2,0.4-0.9,0.3-0.9-0.2
		c0-0.3,0.2-0.6,0.3-0.8c0.1-0.2,0.2-0.4,0.3-0.6l0.1-0.3C58.6,36.2,58.8,35.7,58.9,35z M60.2,29.2c-0.1-0.1,0.1-0.2,0.1-0.1
		c1.6,1.1,2.7,2.7,3.5,4.5c0.7,1.8,1.2,3.9,0.5,5.8c-0.1,0.3-0.7,0.4-0.7,0c-0.2-1.8-0.3-3.6-0.8-5.3C62.2,32.3,61.3,30.7,60.2,29.2
		z M61.8,6.1c0.1-0.1,0.2,0.1,0.1,0.1c-1.8,1.4-3.4,3.1-4.6,4.9c-2.4,3.4-3.9,7.3-4.6,11.3c-0.4,2.4-0.5,4.8-0.5,7.2
		c0,1,0.1,1.9,0.1,2.9l0.1,1.1c0,0.5,0.1,1,0,1.5l0,0.1c0,0.6,0,1.2-0.1,1.7c-0.1,0.3-0.5,0.3-0.6,0.1c0,0-0.1-0.1-0.1-0.2
		c-0.3,0.6-0.8,1.1-1.3,1.5c0.2-0.1,0.5-0.1,0.7-0.1c0.4,0,0.7,0.2,1,0.5c0.2-0.1,0.5-0.2,0.8-0.2c0.2,0,0.4,0.3,0.3,0.4
		c-0.2,0.4-0.6,0.6-1,0.8c-0.3,0.1-0.6,0-0.7-0.3l0,0c-0.1-0.4-0.7-0.3-1-0.3l-0.1,0c-0.5,0.1-1.1,0.3-1.6,0.1
		c-0.4-0.1-0.4-0.6-0.1-0.8c1.1-0.6,2-1.3,2.9-2c-0.2-0.5-0.3-1.1-0.5-1.6c-0.2-0.7-0.2-1.5-0.3-2.2c-0.1-1.4-0.2-2.8-0.2-4.2
		c0-4.7,0.9-9.5,2.9-13.7c0.9-1.9,2.1-3.6,3.5-5.1C58.4,8.2,60,7,61.8,6.1z M83.2,16.3c0-0.2,0.2-0.3,0.3-0.1
		c0.7,1.3,0.9,2.7,1.2,4.1c0.2,1.4,0.4,2.8,0.4,4.3c0,1.1-0.1,2.2-0.3,3.3l0,0.1c0,0.1,0.1,0.3,0.1,0.4l0.1,0.2
		c0.1,0.4,0.2,0.8,0.4,1.2c0.3,0.9,0.6,1.7,0.9,2.6c0.3,0.8,0.8,1.6,1.2,2.3c0.5,0.7,1.2,1.3,1.6,2.1c0.1,0.3-0.1,0.6-0.4,0.6
		c0,0-0.1,0-0.1,0c-0.2,0-0.5,0-0.7,0c-0.1,0-0.1-0.2,0-0.2c0.1,0,0.2,0,0.3,0c-0.7-0.4-1.2-1.2-1.6-1.9c-0.5-0.9-0.9-1.8-1.2-2.8
		c-0.3-1-0.6-2-0.7-3c0-0.1,0-0.2-0.1-0.4c-0.2,1-0.5,2-0.9,2.9l-0.1,0.1c-0.8,2.2-2,4.3-3.8,5.8c-0.1,0.1-0.2,0.1-0.3,0.2l0.1,0.1
		c0.1,0.1,0.2,0.1,0.3,0.2c0.4,0.2,0.8,0.3,1.2,0.4c0.8,0.2,1.7,0.1,2.6,0.2c0.3,0,0.4,0.4,0.2,0.6c-0.9,0.5-2,0.4-2.9,0
		c-0.5-0.2-0.9-0.4-1.4-0.7c-0.2-0.1-0.4-0.3-0.5-0.4c-1.9,1-4.2,1.2-6.3,0.8c-1.1-0.2-2.1-0.6-3.1-1.2c-0.9-0.6-1.5-1.3-2-2.3
		c0-0.1,0.1-0.2,0.1-0.1c1.4,1.7,3.9,2.4,6,2.6c1.1,0.1,2.3,0,3.4-0.3c1-0.3,1.9-0.9,2.7-1.7c1.5-1.6,2.4-3.8,3.1-5.9
		c0.7-2.3,1.1-4.7,1.1-7c0-1.2,0-2.4-0.2-3.6C83.7,18.6,83.4,17.5,83.2,16.3z"/>
	<g>
		<defs>
			<path id="SVGID_9_" d="M75.5,52.7c0,0-2.6,2.2-7.3-3.8c-0.8-1.2-2.2-2.9-2.1-5.5c0.2-0.1,1.6-0.7,1.6-0.7l-0.3-0.3h-2.8l0,4.6
				l-0.3,1.5l0.2,0.6L63,52.3L62.5,88l0.6,12.1l7,1.5l15.4-7.9l-1.8-8.5l0.3-32.6L83.4,52l-0.7,0.2c0,0-0.6,0.6-1,0.3
				c-1-0.5-1.7-2.2-1.7-2.2l-0.4-1.2l0-3.1c0,0-0.2-1.6-0.5-2.1c-0.4-0.5-0.4-0.2-0.4,0.9c0,1.1,0,2.6-0.5,4.3
				C77.2,52.1,75.5,52.7,75.5,52.7z"/>
		</defs>
		<clipPath id="SVGID_2_">
			<use xlink:href="#SVGID_9_"  style="overflow:visible;"/>
		</clipPath>
		<g class="st14">
			<path class="st1" d="M80.9,91.2c1.1-0.2,1.7,1.3,0.9,2.2C80.4,94.6,79.2,91.8,80.9,91.2z"/>
			<path class="st1" d="M71,94.3c2.3-0.5,3.8,2.7,1.9,4.7C69.9,101.6,67.4,95.6,71,94.3z"/>
			<path class="st1" d="M74.8,85.5c2.7-0.6,3.7,4,1,5C73.3,91.1,72.1,86.2,74.8,85.5z"/>
			<path class="st1" d="M69.6,87c1.3-0.3,1.8,2,0.5,2.5C68.9,89.8,68.3,87.3,69.6,87z"/>
			<path class="st1" d="M75.3,74.5c1-0.6,1.9,0.9,1.3,1.9C75.4,78.1,73.7,75.5,75.3,74.5z"/>
			<path class="st1" d="M72,78c0.5,1.4,0,3.3-1.3,3.7C69,82,67,79.9,67.7,77.7C68.5,75.5,71.3,76,72,78z"/>
			<path class="st1" d="M67.7,65.9c2.1-0.6,4.1,2.8,1.7,4.4c-0.9,0.5-2.1,0-2.7-0.8C65.9,68.3,66.5,66.2,67.7,65.9z"/>
			<path class="st1" d="M66.1,85.5c1.6,0.6,2.4,3.2,1,4.6c-2.5,2.3-5.4-2.3-2.4-4.3C65.1,85.4,65.6,85.3,66.1,85.5z"/>
			<path class="st1" d="M59.9,75c0.9,0.5,1.4,2.1,0.8,3.2c-0.5,1-1.7,0.8-2.5,0.7c-1.7-0.2-2.7-3.1-1.3-4.6
				C57.9,73.3,59.4,73.7,59.9,75z"/>
			<path class="st1" d="M80.4,77.1c2.3-0.5,3.8,2.7,1.9,4.7C79.3,84.4,76.8,78.4,80.4,77.1z"/>
			<path class="st1" d="M78.6,67.6c2.7-0.6,3.7,4,1,5C77.2,73.2,76,68.3,78.6,67.6z"/>
			<path class="st1" d="M78.3,55.2c1.9-1.1,3.7,1.7,2.5,3.8C78.6,62.4,75.2,57.2,78.3,55.2z"/>
			<path class="st1" d="M76.6,62.5c0.5,1.4,0,3.3-1.3,3.7c-1.7,0.4-3.7-1.8-2.9-3.9C73.1,60.1,75.9,60.5,76.6,62.5z"/>
			<path class="st1" d="M71.1,53.1c1.6,0.6,2.4,3.2,1,4.6c-2.5,2.3-5.4-2.3-2.4-4.3C70.1,53.1,70.7,52.9,71.1,53.1z"/>
			<path class="st1" d="M61.3,66.2c0.4,0.6,0.4,1.6,0,2.3c-1.1,1.8-3.6,0.4-4-1.5C57,63.7,61,62.9,61.3,66.2z"/>
			<path class="st1" d="M65.4,59.2c0.3,0.2,0.4,0.6,0.2,0.9c-0.2,0.3-0.5,0.2-0.7,0.2c-0.5-0.1-0.8-0.9-0.4-1.3
				C64.8,58.7,65.2,58.9,65.4,59.2z"/>
		</g>
	</g>
	<path class="st2" d="M88.4,19.9c-0.1,0-0.1,0-0.2,0c0,0-0.1,0-0.2-0.1c-0.2,0-0.3-0.1-0.5-0.1c-2.2-0.5-7.3,0.2-7.5,2.1
		c-0.7,0.2-1.3,0-2.1,0c-0.6-2.6-11.3-2.2-11.8-0.7c0,0,0,0,0,0C65.6,21,64.9,21,64.3,21c-1.2,0-2.4,0.1-3.6,0.3
		c-2.2,0.4-5.2,0.8-3.7,3.5c0,0,0,0,0,0l0,0c0.3,0.3,0.7,0.1,0.7-0.3c-0.5-1.3,0.7-1.5,1.6-1.8c2.2-0.8,4.5-0.9,6.8-0.7
		c0.2,0.2,0.4,0.4,0.7,0.5c1.5,0.3,0.7,1.4,1.7,1.6c-0.2,4,4.7,6.2,7.5,3.5c1.1-1.1,1.4-2.7,1.7-4.2c0.1,0,0.2-0.1,0.3-0.2
		c0.3-0.3,0.5-0.6,1.2-0.7c0.7-0.1,1.2,0.1,1.2,0.1c0,0,0,0.1,0.1,0.1c0,0.1,0.1,0.1,0.1,0.1c-0.6,4,2.4,6.5,5.6,4.4
		c1.4-1.3,1.6-3.2,1.7-5c0.2-0.1,0.3-0.3,0.2-0.6c-0.1-0.4,0.1-0.7,0.4-0.9C88.9,20.7,88.9,19.9,88.4,19.9 M76.8,24.8
		c-1.1,5.3-7.3,4-8-0.7c0.6-0.4,0.4-1.5,1.2-1.8c1.2-0.8,2.7-0.7,4-0.7c1.7,0.1,2.2,0.8,3.1,1.6C77.1,23.6,76.9,24.2,76.8,24.8
		 M85.9,26.4c-0.5,0.7-1.5,0.9-2.4,0.8c-1.9-0.2-2.5-2.4-2.6-4c1.3,0.4-0.1-2.2,4.3-2.5c1.5-0.1,1.1,0.8,1.8,1.5
		C87,23.7,86.8,25.2,85.9,26.4"/>
</g>
</svg>
